<svg xmlns="http://www.w3.org/2000/svg" width="61" height="61" viewBox="0 0 61 61">
  <g id="Grupo_7" data-name="Grupo 7" transform="translate(-14 -14)">
    <path id="Caminho_10" data-name="Caminho 10" d="M16.152,254.374h0a1.26,1.26,0,0,0-2.152.891V283.5a1.262,1.262,0,0,0,1.26,1.26H43.492a1.26,1.26,0,0,0,.891-2.152Zm24.3,27.862H16.521V258.308Z" transform="translate(0 -209.757)" fill="#662d91"/>
    <path id="Caminho_11" data-name="Caminho 11" d="M63.26,376.592h8.066a1.26,1.26,0,0,0,.891-2.152l-8.066-8.066a1.26,1.26,0,0,0-2.152.891v8.066A1.262,1.262,0,0,0,63.26,376.592Zm1.26-2.521v-3.763l3.763,3.763Z" transform="translate(-41.95 -307.641)" fill="#662d91"/>
    <rect id="Retângulo_38" data-name="Retângulo 38" width="2" height="3" transform="translate(25.5 17.5)" fill="#662d91"/>
    <rect id="Retângulo_39" data-name="Retângulo 39" width="3" height="3" transform="translate(28.5 17.5)" fill="#662d91"/>
    <rect id="Retângulo_40" data-name="Retângulo 40" width="2" height="3" transform="translate(33.5 17.5)" fill="#662d91"/>
    <path id="Caminho_12" data-name="Caminho 12" d="M174.443,130.334a1.241,1.241,0,0,0-.444.962v11.091a1.262,1.262,0,0,0,.748,1.152l9.074,4.033a1.255,1.255,0,0,0,.67.1v.059l9.429-4.191a1.261,1.261,0,0,0,.748-1.152V131.3a1.243,1.243,0,0,0-.6-1.075v-.012l-9.224-4.1a1.265,1.265,0,0,0-1.024,0L174.4,130.3Zm3.92.962,5.971-2.654,5.971,2.654-5.971,2.654Zm7.231,13.185v-8.332l6.554-2.913v8.332Zm-9.074-2.913v-8.332l6.554,2.913v8.332Z" transform="translate(-139.834 -97.886)" fill="#662d91"/>
    <rect id="Retângulo_41" data-name="Retângulo 41" width="2" height="6" transform="translate(43.5 51.5)" fill="#662d91"/>
    <rect id="Retângulo_42" data-name="Retângulo 42" width="2" height="5" transform="translate(43.5 21.5)" fill="#662d91"/>
    <rect id="Retângulo_43" data-name="Retângulo 43" width="2.521" height="5.183" transform="translate(26.589 31.413) rotate(-64.47)" fill="#662d91"/>
    <rect id="Retângulo_44" data-name="Retângulo 44" width="5.183" height="2.521" transform="translate(56.648 31.372) rotate(-25.53)" fill="#662d91"/>
    <rect id="Retângulo_45" data-name="Retângulo 45" width="5.183" height="2.521" transform="translate(26.589 47.504) rotate(-25.534)" fill="#662d91"/>
    <path id="Caminho_13" data-name="Caminho 13" d="M122.682,60.38h-5.8V45.022l5.853-5.854a4.112,4.112,0,1,0-5.815-5.815l-.038.038V25.343a1.252,1.252,0,0,0-.369-.891L106.432,14.369a1.253,1.253,0,0,0-.891-.369H74.285A4.3,4.3,0,0,0,70,18.285V47.777h2.521V18.285a1.77,1.77,0,0,1,1.764-1.765h30v5.8a4.3,4.3,0,0,0,4.285,4.285h5.8v9.308L98.6,51.675a1.257,1.257,0,0,0-.345.644L97.248,57.36a1.26,1.26,0,0,0,1.483,1.483l5.041-1.008a1.256,1.256,0,0,0,.644-.345l9.948-9.948V60.38H94.45a1.262,1.262,0,0,0-1.26,1.26v2.773H88.149v2.521H93.19v2.773a1.262,1.262,0,0,0,1.26,1.26h28.231a1.262,1.262,0,0,0,1.26-1.26V61.64A1.262,1.262,0,0,0,122.682,60.38Zm-10.1-36.3h-4.015a1.77,1.77,0,0,1-1.765-1.765V18.3Zm8.374,13.3-.29.29-2.251-2.251.291-.291a1.589,1.589,0,0,1,1.12-.466h0a1.592,1.592,0,0,1,1.125,2.717Zm-2.073,2.072L103.525,54.817l-2.251-2.251,15.358-15.358ZM100.968,55.825,100.09,56l.176-.878Zm-1.225,9.092V62.9h1.512v2.017h2.521V62.9h1.512v2.017h2.521V62.9h1.512v2.017h2.521V62.9h1.512v2.017h2.521V62.9h1.512v2.017h2.521V62.9h1.512v5.545H95.711V62.9h1.512v2.017Z" transform="translate(-48.942)" fill="#662d91"/>
  </g>
</svg>
