<svg xmlns="http://www.w3.org/2000/svg" width="62.25" height="62.25" viewBox="0 0 62.25 62.25">
  <g id="Grupo_8" data-name="Grupo 8" transform="translate(-1.625 -1.625)">
    <rect id="Retângulo_46" data-name="Retângulo 46" width="2.818" height="2.818" transform="translate(31.341 56.958)" fill="#662d91"/>
    <path id="Caminho_14" data-name="Caminho 14" d="M6.108,26.986h8.8L20.7,30.849a1.41,1.41,0,0,0,2.187-1.173v-2.69H26.6A4.487,4.487,0,0,0,31.085,22.5V6.108A4.487,4.487,0,0,0,26.6,1.625H6.108A4.487,4.487,0,0,0,1.625,6.108V22.5A4.487,4.487,0,0,0,6.108,26.986ZM28.267,22.5A1.667,1.667,0,0,1,26.6,24.168H21.478a1.411,1.411,0,0,0-1.409,1.409v1.466L16.112,24.4a1.418,1.418,0,0,0-.782-.236H6.108A1.667,1.667,0,0,1,4.443,22.5V6.108A1.667,1.667,0,0,1,6.108,4.443H26.6a1.667,1.667,0,0,1,1.665,1.665Z" fill="#662d91"/>
    <path id="Caminho_15" data-name="Caminho 15" d="M21.945,11.773H20.69V10.108a4.487,4.487,0,0,0-4.483-4.483,2.436,2.436,0,0,0-2.434,2.434V10.55L12.55,11.773H9.034a1.411,1.411,0,0,0-1.409,1.409v8.2a1.411,1.411,0,0,0,1.409,1.409H21.945a2.847,2.847,0,0,0,2.844-2.844V14.617A2.847,2.847,0,0,0,21.945,11.773Zm-5.354-.64V8.487a1.669,1.669,0,0,1,1.281,1.621v1.665H16.847v2.818l5.123.026-.026,5.354h-7.4V13.765l1.636-1.636A1.4,1.4,0,0,0,16.591,11.133Zm-4.867,3.458v5.38H10.443v-5.38Z" transform="translate(0.148 0.099)" fill="#662d91"/>
    <path id="Caminho_16" data-name="Caminho 16" d="M59.392,9.724H49.347a5.54,5.54,0,0,0-5.325-4.1H32.366V8.443H44.02A2.7,2.7,0,0,1,46.3,9.724H40.947A4.484,4.484,0,0,0,37.2,11.773H32.366v2.818h4.1V28.552a4.49,4.49,0,0,0,4.1,4.467v2.706A1.409,1.409,0,0,0,42.754,36.9l3.957-2.639v6.263L45.53,39.34a5.032,5.032,0,0,0-7.116,7.116l4.822,4.821a10.357,10.357,0,0,0-.757,1.483H33.39v2.818h8.358a10.3,10.3,0,0,0,.82,5.38H21.478a2.693,2.693,0,0,1-2.662-2.306H26.6a4.488,4.488,0,0,0,4.483-4.483v-8.2A4.488,4.488,0,0,0,26.6,41.489H22.887V38.8A1.409,1.409,0,0,0,20.7,37.627L18.789,38.9V30.218H15.971v10.56l-1.065.711h-8.8a4.488,4.488,0,0,0-4.483,4.483v8.2a4.488,4.488,0,0,0,4.483,4.483h9.876a5.525,5.525,0,0,0,5.494,5.123H44.025a5.381,5.381,0,0,0,.715-.054,1.461,1.461,0,0,0,.306.054h12.3a1.411,1.411,0,0,0,1.409-1.409V42.94a11.582,11.582,0,0,0-2.824-7.6l-1.775-2.3h5.239a4.488,4.488,0,0,0,4.483-4.483V14.207A4.488,4.488,0,0,0,59.392,9.724ZM41.972,30.218H40.948a1.667,1.667,0,0,1-1.665-1.665V14.207a1.667,1.667,0,0,1,1.665-1.665H59.392a1.667,1.667,0,0,1,1.665,1.665V28.552a1.667,1.667,0,0,1-1.665,1.665H48.119a1.41,1.41,0,0,0-.781.237l-3.957,2.639V31.627A1.411,1.411,0,0,0,41.972,30.218Zm3.782,22.351.462-.687a1.415,1.415,0,0,0-.173-1.783l-5.632-5.631a2.214,2.214,0,0,1,3.125-3.136l7.958,7.957L53.487,47.3,49.529,43.34v-10.3H50.6l3.141,4.07.015.018a8.84,8.84,0,0,1,2.183,5.815V60.958H45.767A7.526,7.526,0,0,1,45.754,52.568Zm-41.311-6.6a1.667,1.667,0,0,1,1.665-1.665H15.33a1.408,1.408,0,0,0,.782-.237l3.957-2.639V42.9a1.411,1.411,0,0,0,1.409,1.409H26.6a1.667,1.667,0,0,1,1.665,1.665v8.2A1.667,1.667,0,0,1,26.6,55.835H6.108A1.667,1.667,0,0,1,4.443,54.17Z" transform="translate(0 0.099)" fill="#662d91"/>
    <path id="Caminho_17" data-name="Caminho 17" d="M48.339,28.419a1.406,1.406,0,0,0,1.737,0l5.753-4.506a5.348,5.348,0,0,0,1.3-6.738,4.8,4.8,0,0,0-3.292-2.466H53.83a4.572,4.572,0,0,0-3.792.985l-.831.682-.828-.68a4.567,4.567,0,0,0-3.8-.986,4.8,4.8,0,0,0-3.29,2.46,5.352,5.352,0,0,0,1.3,6.75Zm4.95-10.949a2.009,2.009,0,0,1,1.37,1.051,2.565,2.565,0,0,1-.58,3.178l-4.872,3.816L44.34,21.7a2.567,2.567,0,0,1-.58-3.189,2,2,0,0,1,1.355-1.041,1.714,1.714,0,0,1,.327-.032,1.793,1.793,0,0,1,1.146.425l1.726,1.418a1.411,1.411,0,0,0,1.789,0l1.732-1.423A1.736,1.736,0,0,1,53.289,17.471Z" transform="translate(0.963 0.321)" fill="#662d91"/>
    <rect id="Retângulo_47" data-name="Retângulo 47" width="15.114" height="2.818" transform="translate(5.724 46.711)" fill="#662d91"/>
    <rect id="Retângulo_48" data-name="Retângulo 48" width="4.867" height="2.818" transform="translate(22.119 46.711)" fill="#662d91"/>
    <rect id="Retângulo_49" data-name="Retângulo 49" width="6.917" height="2.818" transform="translate(5.724 50.81)" fill="#662d91"/>
    <rect id="Retângulo_50" data-name="Retângulo 50" width="13.065" height="2.818" transform="translate(13.921 50.81)" fill="#662d91"/>
  </g>
</svg>
