<svg xmlns="http://www.w3.org/2000/svg" width="63" height="55.79" viewBox="0 0 63 55.79"><defs><style>.a{fill:#662d91;}</style></defs><g transform="translate(137 -29.016)"><g transform="translate(-137 29.016)"><path class="a" d="M61.131,13.665h-4.76v-2.59A1.869,1.869,0,0,0,54.5,9.206h-4.76V7.029A1.869,1.869,0,0,0,47.873,5.16H15.113a1.869,1.869,0,0,0-1.869,1.869V9.213H8.484a1.869,1.869,0,0,0-1.869,1.869v2.59H1.869A1.869,1.869,0,0,0,0,15.548v32.3a1.869,1.869,0,0,0,1.869,1.869h4.76v3.99A1.869,1.869,0,0,0,8.5,55.581h4.76v3.5a1.869,1.869,0,0,0,1.869,1.869h32.76a1.869,1.869,0,0,0,1.869-1.869v-3.5h4.76a1.869,1.869,0,0,0,1.869-1.869v-3.99h4.76A1.869,1.869,0,0,0,63,47.853v-32.3a1.869,1.869,0,0,0-1.869-1.883Zm-.763,33.383h-3.99v-30.8h3.99ZM53.746,49.68V52.9h-3.99V11.845h3.99v37.87Zm-6.622,5.852v2.73H15.883v-23.9H47.117v21.2ZM2.632,16.3h3.99V47.048H2.632ZM9.254,49.715V11.845h3.99v41.09H9.254ZM47.117,9.78v2.2L45.6,13.49a3.808,3.808,0,0,0-.567-1.624h0l1.316-1.316ZM40.495,31.732H38.731l1.764-1.764,1.316-1.316,1.316-1.316,3.99-3.99v2.191l-3.99,4.011-1.316,1.316-.882.882Zm-5.306,0h-.98l.973-.973L36.5,29.443l3.99-3.99L41.8,24.137l1.316-1.316,3.99-3.99v2.2l-3.99,3.99L41.8,26.335l-1.316,1.316-3.983,4-.1.1Zm11.9-3.864v2.191l-1.673,1.673H43.253Zm0-11.571v.2l-3.99,3.99L41.783,21.8l-1.316,1.316-3.99,3.99-1.288,1.323-1.316,1.316-1.988,1.988h-2.2l4.2-4.2L35.2,26.216,36.519,24.9l3.99-3.99,1.316-1.316,1.316-1.316,1.995-1.995,1.316-1.316.7-.7v1.995ZM26.467,31.7H25.2l1.33-1.33,1.316-1.316,1.316-1.316L33.9,23l1.316-1.316,1.316-1.316,3.241-3.241a3.822,3.822,0,0,0,1.624.567l-.875.875-3.99,3.99-1.316,1.316L33.9,25.187l-4.739,4.739-1.316,1.316-.455.455Zm17.5-18.067a2.1,2.1,0,0,1,0,.266,2.163,2.163,0,0,1-.28,1.05,2.2,2.2,0,0,1-.6.7,2.17,2.17,0,0,1-1.316.455h0a2.177,2.177,0,0,1-.861-.175,2.289,2.289,0,0,1-1.015-.945,1.855,1.855,0,0,1-.28-1.05,2.155,2.155,0,0,1,0-.266,2.242,2.242,0,0,1,2.17-1.932h0a2.149,2.149,0,0,1,.651.112.528.528,0,0,1,.2.063,2.184,2.184,0,0,1,.462.28,2.212,2.212,0,0,1,.7.882,2.17,2.17,0,0,1,.175.6Zm-8.792,3.5.889-.889.427-.427.889-.889L38,14.3a3.906,3.906,0,0,0,.567,1.631l-.308.308L36.5,18.068l-1.316,1.316L33.873,20.7l-4.739,4.739-1.323,1.309-1.316,1.316-3.661,3.661H20.643l.546-.546L22.5,29.863l3.99-3.99,1.316-1.316,1.323-1.309,4.739-4.739ZM45.36,9.206l-1.316,1.316-.168.168a2.718,2.718,0,0,0-.315-.168,3.815,3.815,0,0,0-1.309-.392l.357-.357.567-.567,1.4-1.4h2.191Zm-4.522,0-1.316,1.316-1.316,1.316L36.4,13.665l-.49.49-.826.826-.112.112-1.2,1.2-4.62,4.62-1.316,1.316-1.316,1.316-3.99,3.99-1.337,1.309-1.316,1.316-1.554,1.561H16.1l3.752-3.752,1.316-1.316L22.5,25.348l3.99-3.99,1.316-1.316,1.316-1.316L31.549,16.3,32.9,14.981l1.316-1.316,1.82-1.82,1.316-1.316,1.316-1.316,1.4-1.4h2.191Zm-4.522,0L35,10.529l-1.316,1.316-1.82,1.82-1.316,1.316L29.232,16.3l-.1.1-1.316,1.316-1.323,1.337-3.99,3.99-1.316,1.316L19.873,25.67l-3.99,3.99V27.448l3.99-3.99,1.316-1.316L22.5,20.826l3.99-3.99.532-.532.784-.784.525-.525h0l1.316-1.316,1.82-1.82,1.316-1.316L34.1,9.227l1.4-1.4H37.73Zm-4.522,0-1.316,1.316-1.316,1.316-1.82,1.82-1.316,1.316L24.71,16.29l-2.2,2.2L21.2,19.8l-1.323,1.344-3.99,3.99V22.926l3.99-3.99,1.316-1.288L22.5,16.332h0L23.8,14.981l1.316-1.316,1.82-1.82,1.316-1.316,1.316-1.316,1.4-1.4h2.2Zm-4.522,0-1.316,1.316L24.64,11.845l-1.82,1.82-.308.308L21.5,14.981l-.308.308L20.188,16.3l-.308.308-3.99,3.99V18.4l2.1-2.1,1.316-1.316.567-.567.749-.749.567-.567,1.253-1.253,1.316-1.316L25.074,9.22l1.4-1.4H28.7Zm-4.522,0-1.316,1.316-1.316,1.316-.245.245L18.3,13.658l-1.316,1.316-1.1,1.1V13.882l.217-.217,1.82-1.82,1.316-1.316,1.316-1.316,1.4-1.4h2.2Zm-4.522,0-1.316,1.316-1.029,1.029V9.36l.147-.147,1.4-1.4h2.2Z" transform="translate(0 -5.16)"/><path class="a" d="M49.026,74.79h-16.1a1.344,1.344,0,0,0-1.316,1.316,1.274,1.274,0,0,0,.07.35,1.3,1.3,0,0,0,1.246.966h16.1a1.3,1.3,0,0,0,1.246-.966,1.274,1.274,0,0,0,.07-.35A1.344,1.344,0,0,0,49.026,74.79Z" transform="translate(-9.483 -26.049)"/><path class="a" d="M51.143,50.069a1.219,1.219,0,0,0-.147,0H28.036a1.219,1.219,0,0,0-.147,0,1.3,1.3,0,0,0-1.169,1.288V55.97a1.3,1.3,0,0,0,1.169,1.288,1.218,1.218,0,0,0,.147,0H51a1.218,1.218,0,0,0,.147,0,1.3,1.3,0,0,0,1.169-1.288V51.357a1.3,1.3,0,0,0-1.169-1.288ZM49.68,54.654H29.38V52.68h20.3Z" transform="translate(-8.016 -18.632)"/><path class="a" d="M51.143,62.449a1.215,1.215,0,0,0-.147,0H28.036a1.215,1.215,0,0,0-.147,0,1.3,1.3,0,0,0-1.169,1.288V68.35a1.3,1.3,0,0,0,1.169,1.288,1.2,1.2,0,0,0,.147,0H51a1.2,1.2,0,0,0,.147,0,1.3,1.3,0,0,0,1.169-1.288V63.737a1.3,1.3,0,0,0-1.169-1.288ZM49.68,67.034H29.38V65.053h20.3Z" transform="translate(-8.016 -22.346)"/></g></g></svg>