<svg xmlns="http://www.w3.org/2000/svg" width="143.624" height="116" viewBox="0 0 143.624 116"><defs><style>.a{fill:#282829;stroke:#282829;stroke-miterlimit:10;stroke-width:0.2px;}.b{fill:#414042;}.c{fill:#662d91;}.d{fill:#fbb040;}.e{fill:#f7941d;}.e,.f{opacity:0.4;}.f{fill:#7f3f98;}</style></defs><g transform="translate(-18.041 -29)"><g transform="translate(18.2 29)"><g transform="translate(0 92.955)"><path class="a" d="M23.186,113.2l4.764,10.193H26.842l-1.551-3.324H20.859l-1.551,3.324H18.2L23.075,113.2Zm-.111,2.216L21.3,119.072h3.545Z" transform="translate(-18.2 -112.868)"/><path class="a" d="M28,123.493,29.44,113.3h.111l4.1,8.309,4.1-8.309h.222l1.44,10.193h-1l-1-7.312-3.656,7.312H33.54l-3.656-7.312-1,7.312Z" transform="translate(-17.142 -112.857)"/><path class="a" d="M44.386,113.2l4.764,10.193H48.042l-1.551-3.324H42.059l-1.551,3.324H39.4L44.275,113.2Zm-.111,2.216L42.5,119.072h3.545Z" transform="translate(-15.912 -112.868)"/><path class="a" d="M49.6,123.493V113.3h.222l6.758,7.755V113.3h1v10.193h-.222L50.6,115.737v7.755Z" transform="translate(-14.811 -112.857)"/><path class="a" d="M59.1,123.393V113.2h2.105a11.662,11.662,0,0,1,3.324.332,4.706,4.706,0,0,1,2.327,1.773,5.4,5.4,0,0,1,.886,3.1,5.264,5.264,0,0,1-.665,2.659,4.545,4.545,0,0,1-1.773,1.773,6.829,6.829,0,0,1-2.991.554H59.1Zm1-.886h1.108a16.264,16.264,0,0,0,2.991-.222,3.058,3.058,0,0,0,1.773-1.33,4.213,4.213,0,0,0,.665-2.437,4.856,4.856,0,0,0-.665-2.548,3.373,3.373,0,0,0-1.994-1.44,10.781,10.781,0,0,0-3.213-.332H60.1Z" transform="translate(-13.786 -112.868)"/><path class="a" d="M72.886,113.2l4.764,10.193H76.542l-1.551-3.324H70.559l-1.551,3.324H67.9L72.775,113.2Zm-.111,2.216L71,119.072h3.545Z" transform="translate(-12.836 -112.868)"/><path class="a" d="M79.6,113.311h1.219l2.548,4.1,2.548-4.21h1.219l-3.213,5.318v4.875h-1v-4.875Z" transform="translate(-11.573 -112.868)"/><path class="a" d="M92.818,113.1a5.347,5.347,0,0,1,3.878,1.551,5.276,5.276,0,0,1,1.551,3.767,4.846,4.846,0,0,1-1.551,3.656,5.179,5.179,0,0,1-3.767,1.44,5.536,5.536,0,0,1-3.878-1.551,4.964,4.964,0,0,1-1.551-3.545,6.006,6.006,0,0,1,.665-2.77,4.348,4.348,0,0,1,1.994-1.994A6.694,6.694,0,0,1,92.818,113.1Zm0,1a4.583,4.583,0,0,0-2.105.554,3.5,3.5,0,0,0-1.551,1.551,5.043,5.043,0,0,0-.554,2.216,4.091,4.091,0,0,0,1.219,2.991,4.368,4.368,0,0,0,2.991,1.108,5.043,5.043,0,0,0,2.216-.554,3.5,3.5,0,0,0,1.551-1.551,4.514,4.514,0,0,0,.554-1.994,5.043,5.043,0,0,0-.554-2.216,3.5,3.5,0,0,0-1.551-1.551A5.043,5.043,0,0,0,92.818,114.1Z" transform="translate(-10.721 -112.878)"/><path class="a" d="M98.3,121.431l.886-.554c.665,1.108,1.33,1.662,2.105,1.662a3.235,3.235,0,0,0,1-.222,1,1,0,0,0,.665-.665,2.087,2.087,0,0,0,.222-.886,1.787,1.787,0,0,0-.332-1,6.478,6.478,0,0,0-1.773-1.44,6.742,6.742,0,0,1-1.551-1.44,2.647,2.647,0,0,1-.554-1.551,2.233,2.233,0,0,1,.332-1.219,3.372,3.372,0,0,1,.886-.886,2.233,2.233,0,0,1,1.219-.332,2.95,2.95,0,0,1,1.33.332,3.762,3.762,0,0,1,1.33,1.33l-.886.665a2.118,2.118,0,0,0-1-1,2.087,2.087,0,0,0-.886-.222,1.334,1.334,0,0,0-1.44,1.219,1.405,1.405,0,0,0,.111.665,1.477,1.477,0,0,0,.554.665q.166.166,1.33,1a8.836,8.836,0,0,1,1.773,1.662,2.227,2.227,0,0,1,.443,1.44,2.367,2.367,0,0,1-.886,1.883,3.185,3.185,0,0,1-1.994.776,2.67,2.67,0,0,1-1.662-.443A3.33,3.33,0,0,1,98.3,121.431Z" transform="translate(-9.555 -112.9)"/><path class="a" d="M105.4,113.3h1v4.321H111.6V113.3h1v10.193h-1v-4.986H106.4v4.875h-1Z" transform="translate(-8.789 -112.857)"/><path class="a" d="M114,113.3h1v10.193h-1Z" transform="translate(-7.861 -112.857)"/><path class="a" d="M116.9,113.3h1v10.193h-1Z" transform="translate(-7.548 -112.857)"/><path class="a" d="M119.632,114.2v-1h5.429l-4.21,9.2h4.1v1H119.3l4.321-9.2Z" transform="translate(-7.289 -112.868)"/><path class="a" d="M126.122,113.111h1v7.534a2.1,2.1,0,0,0,.332,1,3.059,3.059,0,0,0,.886.665,2.191,2.191,0,0,0,1.108.222,1.92,1.92,0,0,0,1.33-.111,1.866,1.866,0,0,0,1.219-.665,3.935,3.935,0,0,0,.443-1,5.036,5.036,0,0,0,.111-1.551V113h1v6.2a11.428,11.428,0,0,1-.222,2.216,2.692,2.692,0,0,1-1.108,1.44,4.412,4.412,0,0,1-2.77.665,4.243,4.243,0,0,1-2.105-.554,3.331,3.331,0,0,1-1.219-1.551,8.59,8.59,0,0,1-.222-2.105v-6.2Z" transform="translate(-6.576 -112.889)"/><path class="a" d="M134.6,123.493l1.44-10.193h.111l4.1,8.309,4.1-8.309h.111l1.44,10.193h-1l-1-7.312-3.656,7.312h-.222l-3.656-7.312-1,7.312Z" transform="translate(-5.637 -112.857)"/><path class="a" d="M146.7,113.3h1v10.193h-1Z" transform="translate(-4.331 -112.857)"/></g><g transform="translate(28.585 109.242)"><path class="b" d="M50.2,129.13l-.554.332a1.768,1.768,0,0,0-1-.776,2.191,2.191,0,0,0-1.219-.222,3.067,3.067,0,0,0-1.44.332,2.174,2.174,0,0,0-1,1,3.067,3.067,0,0,0-.332,1.44,2.282,2.282,0,0,0,.776,1.883,3.093,3.093,0,0,0,1.994.665,2.789,2.789,0,0,0,2.216-1l.554.332a2.5,2.5,0,0,1-1.219.886,3.539,3.539,0,0,1-1.551.332,3.285,3.285,0,0,1-2.659-1.108A3.108,3.108,0,0,1,44,131.124a3.189,3.189,0,0,1,1-2.327,3.258,3.258,0,0,1,2.437-1,4.446,4.446,0,0,1,1.662.332A4.5,4.5,0,0,1,50.2,129.13Z" transform="translate(-44 -127.578)"/><path class="b" d="M51.5,127.9h1.219a4.6,4.6,0,0,1,1.44.111,1.522,1.522,0,0,1,.886.554,1.787,1.787,0,0,1,.332,1,2.087,2.087,0,0,1-.222.886,1.629,1.629,0,0,1-.665.554,2.818,2.818,0,0,1-.776.222l1.773,2.991h-.776l-1.773-2.991h-.776v2.991H51.5V127.9Zm.665.665v2.105h1.108c.443,0,.776,0,.886-.111a1.53,1.53,0,0,0,.443-.332c.111-.222.222-.332.222-.554a.846.846,0,0,0-.222-.554c-.111-.222-.222-.332-.443-.332a1.9,1.9,0,0,0-.886-.111H52.165Z" transform="translate(-43.191 -127.568)"/><path class="b" d="M57.1,127.9h3.656v.665H57.765v1.994h1.883v.665H57.765v2.437h2.991v.665H57.1Z" transform="translate(-42.586 -127.568)"/><path class="b" d="M65,127.9l2.991,6.315h-.665l-1-2.105h-2.77l-1,2.105H61.9l2.991-6.315H65Zm-.111,1.33-1.108,2.327H66Z" transform="translate(-42.068 -127.568)"/><path class="b" d="M67.9,128.565V127.9h3.435v.665h-1.44v5.761H69.23v-5.761Z" transform="translate(-41.421 -127.568)"/><path class="b" d="M72.5,127.9h.665v6.315H72.5Z" transform="translate(-40.924 -127.568)"/><path class="b" d="M74.8,127.9h.665l2.105,4.875,2.105-4.875h.665l-2.77,6.315h-.111Z" transform="translate(-40.676 -127.568)"/><path class="b" d="M81.6,127.9h3.656v.665H82.265v1.994h1.883v.665H82.265v2.437h2.991v.665H81.6Z" transform="translate(-39.942 -127.568)"/><path class="b" d="M89.7,134.215V127.9h1.33a8.591,8.591,0,0,1,2.105.222,2.447,2.447,0,0,1,1.44,1.108,3.735,3.735,0,0,1,.554,1.883,3.168,3.168,0,0,1-1.551,2.77,4.415,4.415,0,0,1-1.883.332Zm.665-.554h.776a8.451,8.451,0,0,0,1.883-.111,1.76,1.76,0,0,0,1.108-.886,3.142,3.142,0,0,0,.443-1.44,2.344,2.344,0,0,0-.443-1.551,1.971,1.971,0,0,0-1.219-.886,8.253,8.253,0,0,0-1.994-.222h-.443v5.1Z" transform="translate(-39.068 -127.568)"/><path class="b" d="M96.4,127.9h3.656v.665H97.065v1.994h1.883v.665H97.065v2.437h2.991v.665H96.4V127.9Z" transform="translate(-38.345 -127.568)"/><path class="b" d="M101.2,133.029l.554-.332a1.5,1.5,0,0,0,1.33,1,.83.83,0,0,0,.554-.111.865.865,0,0,0,.443-.443.83.83,0,0,0,.111-.554,1.575,1.575,0,0,0-.222-.665,3.211,3.211,0,0,0-1.108-.886c-.554-.443-.886-.665-1-.886a1.787,1.787,0,0,1-.332-1,1.6,1.6,0,0,1,.222-.776,1.335,1.335,0,0,1,.554-.554,2.054,2.054,0,0,1,.776-.222,2.607,2.607,0,0,1,.886.222,2.56,2.56,0,0,1,.776.776l-.554.443a4.218,4.218,0,0,0-.554-.665,1,1,0,0,0-.554-.111,1.575,1.575,0,0,0-.665.222.846.846,0,0,0-.222.554.837.837,0,0,0,.111.443c.111.111.111.222.332.443a6.632,6.632,0,0,0,.776.665,12.348,12.348,0,0,1,1.108,1,1.258,1.258,0,0,1,.332.886,1.779,1.779,0,0,1-.554,1.219,1.835,1.835,0,0,1-1.33.554,2.138,2.138,0,0,1-1.108-.332A1.878,1.878,0,0,1,101.2,133.029Z" transform="translate(-37.827 -127.6)"/><path class="b" d="M106.3,127.9h.665v6.315H106.3Z" transform="translate(-37.276 -127.568)"/><path class="b" d="M115.1,129.03l-.443.443a3.376,3.376,0,0,0-1.108-.776,2.6,2.6,0,0,0-1.219-.222,3.412,3.412,0,0,0-1.44.332,2.174,2.174,0,0,0-1,1,2.525,2.525,0,0,0-.332,1.219,2.95,2.95,0,0,0,.332,1.33,2.425,2.425,0,0,0,1.108,1,3.412,3.412,0,0,0,1.44.332,2.721,2.721,0,0,0,1.662-.554,1.894,1.894,0,0,0,.776-1.44h-1.994v-.665h2.77a3.043,3.043,0,0,1-3.213,3.213,3.44,3.44,0,0,1-2.77-1.219,3.284,3.284,0,0,1-.332-3.767,2.947,2.947,0,0,1,1.219-1.108,3.251,3.251,0,0,1,1.773-.443,3.91,3.91,0,0,1,1.551.332C114.218,128.365,114.661,128.586,115.1,129.03Z" transform="translate(-36.996 -127.589)"/><path class="b" d="M116.7,134.315V128h.111l4.21,4.875V128h.665v6.315h-.111l-4.21-4.764v4.764Z" transform="translate(-36.154 -127.557)"/></g><path class="c" d="M36.6,93.814,76.375,29l21.383,73.012-30.579-4.1Z" transform="translate(-16.214 -29)"/><path class="d" d="M143.036,43.788l-39.553,64.7L82.1,35.7l30.468,3.989Z" transform="translate(-11.303 -28.277)"/><g transform="translate(72.126 11.966)"><path class="e" d="M99.7,95.75,130.276,46,99.7,42.016,83.3,39.8Z" transform="translate(-83.3 -39.8)"/></g><path class="e" d="M115.094,40.127,97.7,37.8l13.628,46.644L136.7,42.9Z" transform="translate(-9.62 -28.05)"/><g transform="translate(86.972 27.698)"><path class="e" d="M131.267,58.653l-4.1-.554L96.7,54l12.076,41.326Z" transform="translate(-96.7 -54)"/></g><path class="c" d="M94.586,102.4,63.564,98.3,32.986,94.2,28,102.4Z" transform="translate(-17.142 -21.963)"/><g transform="translate(33.127 12.298)"><path class="f" d="M78.679,40.1,48.1,89.957l30.579,3.989,16.508,2.216Z" transform="translate(-48.1 -40.1)"/></g><path class="f" d="M62.515,95.028l17.505,2.327L66.282,50.6,40.8,92.147Z" transform="translate(-15.761 -26.669)"/><g transform="translate(30.69 11.19)"><path class="f" d="M45.9,75.883l4.1.554,30.579,4.1L68.391,39.1Z" transform="translate(-45.9 -39.1)"/></g><path class="f" d="M86.777,102.172l.443-.665L65.505,98.627,48,96.3l1.773,5.872Z" transform="translate(-14.984 -21.737)"/><path class="f" d="M61.57,102l-10.858-1.44L30.437,97.9,28,102Z" transform="translate(-17.142 -21.564)"/></g></g></svg>