<svg xmlns="http://www.w3.org/2000/svg" viewBox="0 0 896.61 444.59"><defs><style>.cls-1{fill:#e8e8e8;}.cls-2{fill:#fbb040;}.cls-3{fill:#662d91;}</style></defs><title>Ativo 4</title><g id="Camada_2" data-name="Camada 2"><g id="Layer_1" data-name="Layer 1"><path class="cls-1" d="M183.09,400.65a1.6,1.6,0,0,1-1.6-1.59l-.14-20a1.59,1.59,0,0,1,1.59-1.6l20-.14h0a1.6,1.6,0,1,1,0,3.19l-18.38.13.13,18.38a1.6,1.6,0,0,1-1.59,1.61Z"/><path class="cls-1" d="M140.5,205a1.6,1.6,0,0,1-.5-3.12l5.05-1.66-1.66-5a1.6,1.6,0,1,1,3-1l2.16,6.56a1.6,1.6,0,0,1-1,2L141,205A1.69,1.69,0,0,1,140.5,205Z"/><path class="cls-1" d="M88.58,400.72a1.41,1.41,0,0,1-.4-.05A1.6,1.6,0,0,1,87,398.73L88.75,392a1.64,1.64,0,0,1,.73-1,1.68,1.68,0,0,1,1.22-.17l6.68,1.72a1.59,1.59,0,0,1-.79,3.09l-5.14-1.32-1.32,5.14A1.61,1.61,0,0,1,88.58,400.72Z"/><path class="cls-1" d="M294.23,415.71a1.6,1.6,0,0,1-1.57-1.33l-1.91-11.08-11.08,1.91a1.6,1.6,0,1,1-.54-3.15l12.65-2.18a1.59,1.59,0,0,1,1.85,1.3l2.18,12.66a1.61,1.61,0,0,1-1.31,1.85Z"/><path class="cls-1" d="M375.55,254.45a1.6,1.6,0,0,1-1.58-1.36l-.76-5-5,.76a1.6,1.6,0,0,1-.48-3.16l6.6-1a1.6,1.6,0,0,1,1.82,1.35l1,6.59a1.6,1.6,0,0,1-1.34,1.82Z"/><path class="cls-1" d="M48.71,182.42a1.6,1.6,0,0,1-1.55-1.22l-1-4.26-4.26,1a1.6,1.6,0,0,1-.75-3.11l5.81-1.4a1.6,1.6,0,0,1,1.93,1.18l1.4,5.81a1.6,1.6,0,0,1-1.18,1.93A1.64,1.64,0,0,1,48.71,182.42Z"/><path class="cls-1" d="M324.51,21.9A1.59,1.59,0,0,1,323,20.64L321,11.7a1.59,1.59,0,0,1,1.22-1.9l8.93-1.94a1.6,1.6,0,0,1,.68,3.13l-7.37,1.6,1.6,7.37a1.6,1.6,0,0,1-1.22,1.9A2.09,2.09,0,0,1,324.51,21.9Z"/><path class="cls-1" d="M236.09,229.82h0a1.6,1.6,0,0,1-1.56-1.64l.13-4.86-4.86-.13a1.6,1.6,0,0,1-1.56-1.64,1.58,1.58,0,0,1,1.64-1.55l6.46.17a1.61,1.61,0,0,1,1.56,1.64l-.18,6.46A1.59,1.59,0,0,1,236.09,229.82Z"/><path class="cls-2" d="M57.23,258.6a1.6,1.6,0,0,1-1.51-2.13l5.2-14.75a1.59,1.59,0,0,1,.82-.91,1.61,1.61,0,0,1,1.22-.06L77.7,246a1.6,1.6,0,1,1-1.06,3L63.4,244.29l-4.67,13.24A1.59,1.59,0,0,1,57.23,258.6Z"/><path class="cls-3" d="M201.45,48a1.37,1.37,0,0,1-.34,0,1.6,1.6,0,0,1-1.23-1.89l4.41-20.9-20.9-4.41a1.6,1.6,0,0,1,.66-3.13l22.46,4.74a1.61,1.61,0,0,1,1.24,1.9L203,46.73A1.6,1.6,0,0,1,201.45,48Z"/><path class="cls-1" d="M412.52,177.79l-.28,0-6.64-1.18a1.59,1.59,0,0,1-1.29-1.85l1.18-6.64a1.59,1.59,0,1,1,3.14.56l-.89,5.06,5.06.9a1.6,1.6,0,0,1-.28,3.17Z"/><path class="cls-1" d="M178.17,194.4a1.63,1.63,0,0,1-.87-.26L173.94,192a1.59,1.59,0,1,1,1.73-2.68l2,1.29,1.29-2a1.6,1.6,0,1,1,2.69,1.73l-2.16,3.36A1.58,1.58,0,0,1,178.17,194.4Z"/><path class="cls-1" d="M399.37,105.48a1.58,1.58,0,0,1-1-.37,1.6,1.6,0,0,1-.21-2.25l3.29-4a1.62,1.62,0,0,1,1.08-.57,1.59,1.59,0,0,1,1.17.36l4,3.29a1.6,1.6,0,0,1-2,2.46l-2.75-2.27-2.27,2.75A1.59,1.59,0,0,1,399.37,105.48Z"/><path class="cls-1" d="M109,304.14a1.56,1.56,0,0,1-1.22-.57,1.6,1.6,0,0,1,.18-2.25l2.33-2-2-2.33a1.6,1.6,0,0,1,2.44-2.07l3,3.56a1.6,1.6,0,0,1-.19,2.25l-3.55,3A1.57,1.57,0,0,1,109,304.14Z"/><path class="cls-1" d="M425,221h-.08a1.59,1.59,0,0,1-1.51-1.68l.13-2.47-2.47-.13a1.6,1.6,0,1,1,.16-3.19l4.07.21a1.6,1.6,0,0,1,1.51,1.68l-.21,4.07A1.6,1.6,0,0,1,425,221Z"/><path class="cls-1" d="M410.43,336.51a1.55,1.55,0,0,1-.93-.31l-12-8.65a1.62,1.62,0,0,1-.64-1,1.57,1.57,0,0,1,.28-1.19l8.66-12a1.6,1.6,0,0,1,2.59,1.87l-7.72,10.69,10.69,7.72a1.6,1.6,0,0,1,.36,2.23A1.58,1.58,0,0,1,410.43,336.51Z"/><path class="cls-1" d="M229,293.15a1.57,1.57,0,0,1-1.12-.46,1.6,1.6,0,0,1,0-2.26l8.09-8.19a1.6,1.6,0,0,1,2.26,0l8.2,8.09a1.6,1.6,0,1,1-2.25,2.28l-7.05-7-7,7.06A1.64,1.64,0,0,1,229,293.15Z"/><path class="cls-1" d="M31.27,67.91a1.53,1.53,0,0,1-.62-.13,1.6,1.6,0,0,1-.86-2.09l3-7.16-7.15-3a1.6,1.6,0,0,1,1.22-3l8.64,3.6a1.6,1.6,0,0,1,.86,2.09l-3.6,8.63A1.59,1.59,0,0,1,31.27,67.91Z"/><path class="cls-1" d="M148.11,38.11a1.6,1.6,0,0,1-.84-3L162.19,26,153,11a1.6,1.6,0,0,1,2.73-1.68l10,16.29a1.6,1.6,0,0,1-.52,2.2l-16.29,10A1.59,1.59,0,0,1,148.11,38.11Z"/><path class="cls-1" d="M205.21,216a1.6,1.6,0,0,1-1.48-1l-2.15-5.18a1.61,1.61,0,0,1,.87-2.09l5.17-2.14a1.6,1.6,0,0,1,1.23,3l-3.7,1.53,1.53,3.7a1.6,1.6,0,0,1-.86,2.09A1.47,1.47,0,0,1,205.21,216Z"/><path class="cls-1" d="M359.64,14.53a1.57,1.57,0,0,1-1.24-.59l-3.83-4.7a1.6,1.6,0,0,1,2.48-2l2.81,3.46,3.47-2.81a1.6,1.6,0,0,1,2,2.48l-4.7,3.82A1.58,1.58,0,0,1,359.64,14.53Z"/><path class="cls-1" d="M388.29,416a1.6,1.6,0,0,1-.1-3.19l10.06-.66-.65-10.07a1.58,1.58,0,0,1,1.49-1.69,1.6,1.6,0,0,1,1.7,1.49l.76,11.66a1.6,1.6,0,0,1-.4,1.16,1.57,1.57,0,0,1-1.09.54l-11.67.76Z"/><path class="cls-1" d="M342.9,362a1.51,1.51,0,0,1-.79-.21,1.6,1.6,0,0,1-.6-2.18l2.51-4.4-4.4-2.51a1.6,1.6,0,1,1,1.58-2.78l5.8,3.3a1.6,1.6,0,0,1,.59,2.18l-3.3,5.8A1.62,1.62,0,0,1,342.9,362Z"/><path class="cls-1" d="M364.62,53.3a1.57,1.57,0,0,1-1.15-.49L347.42,36.12a1.6,1.6,0,1,1,2.3-2.22l14.95,15.54L380.21,34.5a1.59,1.59,0,1,1,2.21,2.3L365.73,52.85A1.59,1.59,0,0,1,364.62,53.3Z"/><path class="cls-1" d="M400.34,23.25a1.72,1.72,0,0,1-.39,0l-11.76-2.89A1.59,1.59,0,0,1,387,18.39l2.89-11.76a1.6,1.6,0,0,1,3.1.76l-2.5,10.21,10.21,2.5a1.6,1.6,0,0,1-.38,3.15Z"/><path class="cls-1" d="M400.48,75.15a1.61,1.61,0,0,1-1.55-1.21L397.18,67a1.6,1.6,0,1,1,3.1-.78l1.36,5.35L407,70.25a1.6,1.6,0,0,1,.78,3.1l-6.9,1.75A1.74,1.74,0,0,1,400.48,75.15Z"/><path class="cls-1" d="M216.39,351.15a1.61,1.61,0,0,1-1.57-1.3L211,329.67a1.59,1.59,0,0,1,.25-1.2,1.62,1.62,0,0,1,1-.67l20.18-3.87a1.6,1.6,0,0,1,.61,3.14l-18.62,3.56L218,349.25a1.6,1.6,0,0,1-1.27,1.87Z"/><path class="cls-1" d="M125.9,143.25a1.59,1.59,0,0,1-.47-3.12l3.76-1.16L128,135.2a1.6,1.6,0,1,1,3.06-.94l1.63,5.29a1.61,1.61,0,0,1-.12,1.22,1.52,1.52,0,0,1-.94.78l-5.29,1.63A1.58,1.58,0,0,1,125.9,143.25Z"/><path class="cls-1" d="M143,441.4h0l-12.69-.21a1.6,1.6,0,0,1-1.57-1.63l.21-12.68a1.6,1.6,0,0,1,1.6-1.57h0a1.6,1.6,0,0,1,1.57,1.62L131.94,438l11.09.18a1.6,1.6,0,0,1,0,3.2Z"/><path class="cls-2" d="M426.36,349a1.6,1.6,0,0,1-.48-3.13l11-3.41-3.41-11a1.6,1.6,0,1,1,3.05-.95l3.89,12.51a1.61,1.61,0,0,1-1.05,2l-12.51,3.89A1.49,1.49,0,0,1,426.36,349Z"/><path class="cls-1" d="M263.61,166.79l-.25,0-4.61-.74a1.58,1.58,0,0,1-1-.64,1.62,1.62,0,0,1-.29-1.19l.74-4.61a1.6,1.6,0,0,1,3.16.51l-.49,3,3,.48a1.6,1.6,0,0,1-.25,3.18Z"/><path class="cls-1" d="M403.86,444.32a1.59,1.59,0,0,1-1.37-.77L400,439.44a1.6,1.6,0,0,1,2.73-1.66l1.67,2.75,2.74-1.67a1.6,1.6,0,0,1,1.66,2.73l-4.11,2.5A1.58,1.58,0,0,1,403.86,444.32Z"/><path class="cls-1" d="M150.39,173.24a1.61,1.61,0,0,1-1.55-1.2l-3.09-12.16a1.6,1.6,0,1,1,3.1-.79l2.7,10.61L162.16,167a1.59,1.59,0,1,1,.79,3.09l-12.16,3.1A1.87,1.87,0,0,1,150.39,173.24Z"/><path class="cls-1" d="M364.66,408.54a1.59,1.59,0,0,1-1.55-1.26l-1-4.59-4.6,1a1.6,1.6,0,1,1-.68-3.12l6.16-1.36a1.6,1.6,0,0,1,1.9,1.22l1.36,6.16a1.6,1.6,0,0,1-1.22,1.9A1.39,1.39,0,0,1,364.66,408.54Z"/><path class="cls-1" d="M184,230.06a2,2,0,0,1-.34,0l-6.53-1.44a1.61,1.61,0,0,1-1.21-1.91l1.44-6.53a1.6,1.6,0,0,1,3.12.69l-1.1,5,5,1.1a1.59,1.59,0,0,1-.35,3.15Z"/><path class="cls-1" d="M156.93,409.93a1.6,1.6,0,0,1-1.53-1.13l-4.05-12.95-12.95,4a1.6,1.6,0,0,1-1-3l14.48-4.53a1.61,1.61,0,0,1,2,1.05l4.52,14.48a1.59,1.59,0,0,1-1,2A1.55,1.55,0,0,1,156.93,409.93Z"/><path class="cls-1" d="M7.23,179.75a1.6,1.6,0,0,1-.73-3l2.69-1.37-1.37-2.69a1.6,1.6,0,0,1,2.85-1.45l2.1,4.11a1.6,1.6,0,0,1-.7,2.15L8,179.58A1.55,1.55,0,0,1,7.23,179.75Z"/><path class="cls-1" d="M214.89,264.63a1.59,1.59,0,0,1-1.35-.74L206,252.11a1.6,1.6,0,0,1,.5-2.21l11.78-7.5a1.6,1.6,0,0,1,1.72,2.7l-10.44,6.64,6.64,10.44a1.59,1.59,0,0,1-.5,2.2A1.56,1.56,0,0,1,214.89,264.63Z"/><path class="cls-1" d="M300.69,59.48a1.7,1.7,0,0,1-.58-.11,1.6,1.6,0,0,1-.91-2.07l7.38-19-19.05-7.37a1.6,1.6,0,0,1,1.15-3l20.54,8a1.6,1.6,0,0,1,.91,2.07l-7.95,20.53A1.59,1.59,0,0,1,300.69,59.48Z"/><path class="cls-1" d="M436.69,195.56a1.72,1.72,0,0,1-.44-.06,1.61,1.61,0,0,1-1.1-2l.67-2.36-2.36-.67a1.6,1.6,0,0,1,.87-3.08l3.9,1.11a1.61,1.61,0,0,1,1.11,2l-1.11,3.91A1.6,1.6,0,0,1,436.69,195.56Z"/><path class="cls-1" d="M124.8,381.76a1.67,1.67,0,0,1-.77-.2l-8.51-4.68a1.61,1.61,0,0,1-.63-2.17,1.59,1.59,0,0,1,2.17-.63l7.11,3.91,3.92-7.11a1.58,1.58,0,0,1,2.17-.63,1.6,1.6,0,0,1,.63,2.17l-4.68,8.51A1.61,1.61,0,0,1,124.8,381.76Z"/><path class="cls-1" d="M4,242.86a1.6,1.6,0,0,1-1.1-2.75l2-2-1.95-2a1.6,1.6,0,0,1,2.3-2.22l3.06,3.18a1.55,1.55,0,0,1,.45,1.14,1.65,1.65,0,0,1-.49,1.12l-3.18,3.06A1.63,1.63,0,0,1,4,242.86Z"/><path class="cls-1" d="M352,221.3a1.6,1.6,0,0,1-1-.34l-9.56-7.6a1.6,1.6,0,1,1,2-2.51l8.31,6.61,6.6-8.31a1.6,1.6,0,0,1,2.5,2l-7.6,9.56a1.6,1.6,0,0,1-1.07.59Z"/><path class="cls-3" d="M117.7,230.29a1.63,1.63,0,0,1-.87-.26l-12.75-8.3a1.6,1.6,0,0,1-.47-2.21l8.3-12.75a1.6,1.6,0,1,1,2.68,1.75l-7.43,11.41,11.42,7.42a1.6,1.6,0,0,1-.88,2.94Z"/><path class="cls-1" d="M28.85,115a1.51,1.51,0,0,1-.59-.11L13.48,109a1.59,1.59,0,0,1-.89-2.08l5.89-14.77a1.6,1.6,0,0,1,3,1.18l-5.3,13.29,13.29,5.3a1.6,1.6,0,0,1-.59,3.08Z"/><path class="cls-1" d="M132.25,17.42a1.63,1.63,0,0,1-.71-.16,1.6,1.6,0,0,1-.72-2.14l1.86-3.75-3.75-1.86a1.6,1.6,0,1,1,1.41-2.87l5.19,2.57a1.6,1.6,0,0,1,.72,2.14l-2.57,5.18A1.58,1.58,0,0,1,132.25,17.42Z"/><path class="cls-1" d="M90,441.94a1.49,1.49,0,0,1-.58-.11,1.6,1.6,0,0,1-.91-2.07L91.11,433l-6.75-2.63a1.6,1.6,0,0,1,1.17-3l8.23,3.22a1.6,1.6,0,0,1,.91,2.07l-3.22,8.23A1.58,1.58,0,0,1,90,441.94Z"/><path class="cls-1" d="M432.28,442.19a1.61,1.61,0,0,1-.93-.3,1.59,1.59,0,0,1-.36-2.23l1.86-2.6-2.59-1.87a1.59,1.59,0,1,1,1.86-2.59l3.9,2.8a1.59,1.59,0,0,1,.36,2.23l-2.8,3.89A1.58,1.58,0,0,1,432.28,442.19Z"/><path class="cls-1" d="M439,313a1.62,1.62,0,0,1-1.24-.58l-9.88-12a1.6,1.6,0,0,1,.22-2.25l12-9.87a1.59,1.59,0,0,1,2,2.46l-10.78,8.87,8.86,10.79a1.6,1.6,0,0,1-.22,2.25A1.62,1.62,0,0,1,439,313Z"/><path class="cls-1" d="M112.37,345.8a1.6,1.6,0,0,1-1.47-1l-3.08-7.12a1.6,1.6,0,0,1,.83-2.1l7.11-3.08a1.6,1.6,0,1,1,1.27,2.94l-5.64,2.44,2.44,5.64a1.6,1.6,0,0,1-.83,2.11A1.55,1.55,0,0,1,112.37,345.8Z"/><path class="cls-1" d="M357,304.84a1.59,1.59,0,0,1-1.27-2.56l2.53-3.36a1.6,1.6,0,0,1,2.24-.31l3.36,2.53a1.6,1.6,0,0,1-1.92,2.56l-2.09-1.58-1.57,2.09A1.63,1.63,0,0,1,357,304.84Z"/><path class="cls-1" d="M19,261.25a1.59,1.59,0,0,1-1.27-2.56l3.15-4.12a1.61,1.61,0,0,1,2.24-.3l4.12,3.15a1.6,1.6,0,0,1-2,2.54l-2.84-2.18-2.18,2.85A1.59,1.59,0,0,1,19,261.25Z"/><path class="cls-1" d="M435.56,88.65a1.6,1.6,0,0,1-1.23-.58l-3.19-3.8a1.62,1.62,0,0,1,.2-2.26l3.81-3.19a1.61,1.61,0,0,1,2.25.2,1.59,1.59,0,0,1-.2,2.25l-2.58,2.17L436.78,86a1.6,1.6,0,0,1-.19,2.25A1.62,1.62,0,0,1,435.56,88.65Z"/><path class="cls-1" d="M72.91,20.81a1.39,1.39,0,0,1-.53-.1,1.58,1.58,0,0,1-1-2l1.71-4.81-4.81-1.71a1.6,1.6,0,1,1,1.07-3l6.32,2.25a1.63,1.63,0,0,1,.91.82,1.61,1.61,0,0,1,.06,1.22l-2.25,6.32A1.61,1.61,0,0,1,72.91,20.81Z"/><path class="cls-1" d="M78.88,106.34l-.25,0-17.47-2.76a1.6,1.6,0,0,1,.5-3.16l15.89,2.51L80.06,87a1.6,1.6,0,0,1,3.16.5L80.46,105a1.61,1.61,0,0,1-1.58,1.35Z"/><path class="cls-1" d="M434.15,164.1a1.49,1.49,0,0,1-.76-.2l-9.62-5.23a1.6,1.6,0,1,1,1.53-2.8l8.21,4.46,4.47-8.21a1.6,1.6,0,0,1,2.81,1.52l-5.23,9.62A1.59,1.59,0,0,1,434.15,164.1Z"/><path class="cls-1" d="M289.47,192.93h-.12a1.6,1.6,0,0,1-1.47-1.72l.73-9.36a1.61,1.61,0,0,1,1.72-1.47l9.36.74a1.6,1.6,0,0,1-.25,3.19l-7.77-.61-.61,7.76A1.59,1.59,0,0,1,289.47,192.93Z"/><path class="cls-1" d="M242,378.5h-.1l-9.35-.54a1.6,1.6,0,1,1,.19-3.19l7.75.45.45-7.75a1.6,1.6,0,0,1,3.2.18l-.55,9.35A1.6,1.6,0,0,1,242,378.5Z"/><path class="cls-1" d="M24.71,219.24a1.61,1.61,0,0,1-1.48-1l-7.48-17.7a1.6,1.6,0,0,1,2.94-1.25l6.87,16.23,16.22-6.86A1.6,1.6,0,1,1,43,211.62l-17.7,7.49A1.68,1.68,0,0,1,24.71,219.24Z"/><path class="cls-2" d="M254.87,208a1.6,1.6,0,0,1-.77-3l9.42-5.12-5.12-9.42a1.6,1.6,0,1,1,2.8-1.53l5.89,10.82a1.59,1.59,0,0,1-.64,2.17l-10.82,5.89A1.59,1.59,0,0,1,254.87,208Z"/><path class="cls-1" d="M154.64,318.63a1.47,1.47,0,0,1-.36,0l-14.08-3.31a1.56,1.56,0,0,1-1-.71,1.61,1.61,0,0,1-.2-1.21l3.31-14.07a1.6,1.6,0,1,1,3.11.73l-2.94,12.52L155,315.47a1.6,1.6,0,0,1-.37,3.16Z"/><path class="cls-1" d="M423.34,15.51a1.6,1.6,0,0,1-1.51-1L417.49,2.4a1.6,1.6,0,0,1,3-1.08l3.8,10.55,10.55-3.8a1.6,1.6,0,1,1,1.09,3l-12.06,4.35A1.7,1.7,0,0,1,423.34,15.51Z"/><path class="cls-1" d="M237.28,96.18a1.61,1.61,0,0,1-1.57-1.26l-4.4-20.5a1.59,1.59,0,0,1,1.22-1.9L253,68.11a1.6,1.6,0,0,1,.67,3.12l-18.94,4.08,4.07,18.94a1.6,1.6,0,0,1-1.23,1.9A1.84,1.84,0,0,1,237.28,96.18Z"/><path class="cls-1" d="M120.73,276.63a1.6,1.6,0,0,1-1.34-.73l-8.23-12.77a1.61,1.61,0,0,1-.22-1.21,1.59,1.59,0,0,1,.7-1l12.77-8.23a1.59,1.59,0,0,1,1.73,2.68l-11.43,7.37,7.36,11.43a1.58,1.58,0,0,1-.47,2.2A1.55,1.55,0,0,1,120.73,276.63Z"/><path class="cls-2" d="M11.38,439.68a1.58,1.58,0,0,1-1.11-.44,1.61,1.61,0,0,1,0-2.26l10.3-10.78a1.6,1.6,0,0,1,2.26-.05l10.78,10.29a1.6,1.6,0,0,1-2.21,2.31l-9.63-9.19-9.19,9.63A1.57,1.57,0,0,1,11.38,439.68Z"/><path class="cls-1" d="M292.42,267a1.61,1.61,0,0,1-1.6-1.56l-.15-5.13a1.61,1.61,0,0,1,1.55-1.65l5.14-.14A1.57,1.57,0,0,1,299,260.1a1.6,1.6,0,0,1-1.55,1.64l-3.54.1.11,3.54a1.6,1.6,0,0,1-1.56,1.64Z"/><path class="cls-1" d="M347,286.21a1.6,1.6,0,0,1-.47-.08,1.58,1.58,0,0,1-1.05-2l4.32-13.88a1.59,1.59,0,0,1,2-1.05l13.89,4.32a1.6,1.6,0,1,1-1,3.05l-12.35-3.85-3.85,12.36A1.6,1.6,0,0,1,347,286.21Z"/><path class="cls-1" d="M388.84,195.81a1.45,1.45,0,0,1-.5-.08l-18.41-6a1.59,1.59,0,0,1-.93-.79,1.62,1.62,0,0,1-.1-1.22l6-18.42a1.6,1.6,0,0,1,3,1l-5.52,16.89,16.89,5.52a1.59,1.59,0,0,1-.49,3.11Z"/><path class="cls-3" d="M282.1,232.88a1.59,1.59,0,0,1-1-.34,1.61,1.61,0,0,1-.27-2.25l6.36-8.06a1.59,1.59,0,0,1,2.24-.26l8.06,6.35a1.6,1.6,0,1,1-2,2.51l-6.8-5.36-5.37,6.8A1.58,1.58,0,0,1,282.1,232.88Z"/><path class="cls-1" d="M62.09,155.93a2,2,0,0,1-.34,0,1.61,1.61,0,0,1-1.23-1.9l3.27-15.19L48.6,135.54a1.6,1.6,0,0,1,.67-3.13L66,136a1.61,1.61,0,0,1,1.23,1.9l-3.6,16.75A1.61,1.61,0,0,1,62.09,155.93Z"/><path class="cls-1" d="M192.76,308a1.64,1.64,0,0,1-.37-.05l-18.08-4.31a1.58,1.58,0,0,1-1.18-1.92,1.6,1.6,0,0,1,1.92-1.19l16.53,3.94L195.52,288a1.6,1.6,0,1,1,3.11.74l-4.31,18.08A1.61,1.61,0,0,1,192.76,308Z"/><path class="cls-1" d="M182.83,61.39a1.6,1.6,0,0,1-1.51-1L179.37,55,174,57a1.6,1.6,0,0,1-1.1-3l6.83-2.51a1.6,1.6,0,0,1,2,.95l2.51,6.83a1.61,1.61,0,0,1-1,2A1.56,1.56,0,0,1,182.83,61.39Z"/><path class="cls-1" d="M206.15,170.56l-.32,0-16.65-3.4a1.56,1.56,0,0,1-1-.69,1.58,1.58,0,0,1-.23-1.2l3.39-16.64a1.6,1.6,0,0,1,3.14.64l-3.08,15.08,15.08,3.07a1.6,1.6,0,0,1-.32,3.17Z"/><path class="cls-1" d="M391.24,300.34H391a1.61,1.61,0,0,1-1.36-1.81l3-21.09a1.59,1.59,0,0,1,1.81-1.35l21.09,3a1.6,1.6,0,0,1-.46,3.16l-19.5-2.8-2.8,19.5A1.6,1.6,0,0,1,391.24,300.34Z"/><path class="cls-2" d="M20.38,154.2a1.61,1.61,0,0,1-1.52-1.12l-2.73-8.69-8.69,2.73a1.6,1.6,0,1,1-1-3.05l10.21-3.21a1.61,1.61,0,0,1,2,1l3.21,10.22a1.59,1.59,0,0,1-1,2A1.67,1.67,0,0,1,20.38,154.2Z"/><path class="cls-1" d="M273.7,106.69a1.6,1.6,0,0,1-.95-2.89l3-2.2-2.2-3a1.6,1.6,0,1,1,2.58-1.88l3.15,4.3a1.63,1.63,0,0,1-.35,2.24l-4.31,3.14A1.6,1.6,0,0,1,273.7,106.69Z"/><path class="cls-3" d="M171.67,139.64a1.59,1.59,0,0,1-1.37-.77l-9.13-15a1.59,1.59,0,0,1,.53-2.19l15-9.13a1.6,1.6,0,1,1,1.67,2.73l-13.59,8.29,8.3,13.59a1.6,1.6,0,0,1-1.36,2.43Z"/><path class="cls-1" d="M260.33,264.25a1.59,1.59,0,0,1-1.11-.45l-9.67-9.36a1.59,1.59,0,0,1,0-2.26l9.36-9.67a1.59,1.59,0,1,1,2.29,2.22l-8.24,8.53,8.52,8.24a1.6,1.6,0,0,1-1.11,2.75Z"/><path class="cls-1" d="M370.94,98.76a1.52,1.52,0,0,1-.75-.19l-15.73-8.4a1.6,1.6,0,1,1,1.5-2.82L370.28,95l7.65-14.32a1.6,1.6,0,0,1,2.82,1.5l-8.4,15.73a1.57,1.57,0,0,1-1,.78A1.47,1.47,0,0,1,370.94,98.76Z"/><path class="cls-1" d="M80.14,367.14l-.3,0a1.61,1.61,0,0,1-1.28-1.87l1.23-6.57a1.61,1.61,0,0,1,.67-1,1.65,1.65,0,0,1,1.2-.25l6.57,1.23a1.6,1.6,0,1,1-.59,3.14l-5-.93-.93,5A1.6,1.6,0,0,1,80.14,367.14Z"/><path class="cls-1" d="M389.8,381.09a1.59,1.59,0,0,1-.86-.25l-18-11.46a1.58,1.58,0,0,1-.49-2.2l11.46-18a1.6,1.6,0,1,1,2.69,1.72L374,367.54l16.66,10.6a1.6,1.6,0,0,1-.86,2.95Z"/><path class="cls-1" d="M278.53,147.69a1.58,1.58,0,0,1-1-.37l-9.18-7.64a1.59,1.59,0,0,1-.2-2.25l7.64-9.17a1.59,1.59,0,1,1,2.45,2l-6.61,7.95,7.94,6.61a1.61,1.61,0,0,1,.21,2.26A1.59,1.59,0,0,1,278.53,147.69Z"/><path class="cls-3" d="M62.35,73.08a1.61,1.61,0,0,1-1.59-1.46l-2.12-23a1.6,1.6,0,0,1,1.45-1.74l23-2.12a1.6,1.6,0,0,1,.3,3.18L62,50l2,21.36a1.59,1.59,0,0,1-1.44,1.74Z"/><path class="cls-1" d="M206.18,407.78a1.6,1.6,0,0,1-.76-3l2-1.07-1.07-2a1.6,1.6,0,0,1,2.81-1.51l1.83,3.4a1.6,1.6,0,0,1-.64,2.16l-3.4,1.84A1.64,1.64,0,0,1,206.18,407.78Z"/><path class="cls-1" d="M201.81,130.78a1.58,1.58,0,0,1-1-.37l-3.24-2.71a1.6,1.6,0,1,1,2-2.45l2,1.68,1.69-2a1.6,1.6,0,0,1,2.45,2L203,130.21A1.59,1.59,0,0,1,201.81,130.78Z"/><path class="cls-1" d="M7.64,352.81a1.6,1.6,0,0,1-1.29-2.54l4.93-6.79-6.79-4.93A1.6,1.6,0,0,1,6.37,336l8.08,5.87a1.59,1.59,0,0,1,.35,2.23l-5.86,8.08A1.61,1.61,0,0,1,7.64,352.81Z"/><path class="cls-1" d="M438.93,63.88a1.73,1.73,0,0,1-.32,0l-20.41-4.1a1.6,1.6,0,0,1,.63-3.14l18.84,3.79,3.79-18.84a1.6,1.6,0,0,1,3.13.63l-4.1,20.41A1.6,1.6,0,0,1,438.93,63.88Z"/><path class="cls-1" d="M262.29,36.92h-.13a1.61,1.61,0,0,1-1.46-1.73l1-11.62-11.62-1a1.6,1.6,0,1,1,.27-3.18l13.21,1.09A1.6,1.6,0,0,1,265,22.24l-1.1,13.22A1.58,1.58,0,0,1,262.29,36.92Z"/><path class="cls-1" d="M275.57,378.86a1.69,1.69,0,0,1-.65-.14,1.61,1.61,0,0,1-.8-2.12l6.19-13.83-13.83-6.19a1.6,1.6,0,0,1,1.3-2.92l15.29,6.85a1.59,1.59,0,0,1,.81,2.11L277,377.91A1.59,1.59,0,0,1,275.57,378.86Z"/><path class="cls-1" d="M234.44,193.9a1.58,1.58,0,0,1-1.28-.64l-7.64-10.12a1.6,1.6,0,0,1,.32-2.24L236,173.26a1.6,1.6,0,0,1,1.93,2.55L229,182.49l6.67,8.85a1.61,1.61,0,0,1-.31,2.24A1.65,1.65,0,0,1,234.44,193.9Z"/><path class="cls-1" d="M317.49,286.67a1.58,1.58,0,0,1-1.39-.81,1.6,1.6,0,0,1,.59-2.18l2.93-1.67L318,279.09a1.6,1.6,0,0,1,2.78-1.59l2.46,4.32a1.6,1.6,0,0,1-.6,2.18l-4.31,2.46A1.61,1.61,0,0,1,317.49,286.67Z"/><path class="cls-1" d="M64.17,327.65a1.6,1.6,0,0,1-.39-3.15l19.27-5-5-19.27a1.59,1.59,0,0,1,3.09-.79l5.36,20.82a1.56,1.56,0,0,1-.17,1.21,1.61,1.61,0,0,1-1,.73L64.57,327.6A1.83,1.83,0,0,1,64.17,327.65Z"/><path class="cls-1" d="M175.49,444.32a1.59,1.59,0,0,1-1.44-.91l-5.26-11.08a1.6,1.6,0,0,1,.75-2.13l11.09-5.27a1.6,1.6,0,0,1,1.37,2.89l-9.64,4.58,4.58,9.64a1.61,1.61,0,0,1-.76,2.13A1.54,1.54,0,0,1,175.49,444.32Z"/><path class="cls-1" d="M78.76,212.85a1.6,1.6,0,0,1-1.49-1l-6.15-15.9a1.6,1.6,0,0,1,.91-2.07l15.91-6.15a1.6,1.6,0,0,1,1.15,3l-14.41,5.58,5.57,14.41a1.6,1.6,0,0,1-.91,2.07A1.7,1.7,0,0,1,78.76,212.85Z"/><path class="cls-1" d="M244.4,48.2h-.08L233,47.64A1.6,1.6,0,0,1,231.48,46L232,34.65a1.6,1.6,0,0,1,3.19.15l-.47,9.73,9.72.47a1.6,1.6,0,0,1-.08,3.2Z"/><path class="cls-1" d="M391.61,233.07a1.6,1.6,0,0,1-1.57-1.34L388.45,222l-9.76,1.58a1.6,1.6,0,1,1-.51-3.15l11.33-1.85a1.6,1.6,0,0,1,1.84,1.32l1.84,11.34a1.6,1.6,0,0,1-1.32,1.84Z"/><path class="cls-1" d="M366.4,443.39a1.56,1.56,0,0,1-.94-.31,1.61,1.61,0,0,1-.36-2.23l3.56-4.9a1.6,1.6,0,0,1,2.23-.35l4.9,3.56a1.59,1.59,0,1,1-1.87,2.58l-3.61-2.62-2.62,3.61A1.59,1.59,0,0,1,366.4,443.39Z"/><path class="cls-1" d="M378.27,157.67a1.58,1.58,0,0,1-.88-.26,1.61,1.61,0,0,1-.45-2.22l12.24-18.51-18.52-12.24a1.6,1.6,0,0,1,1.76-2.67l19.85,13.12a1.6,1.6,0,0,1,.45,2.22L379.61,157A1.6,1.6,0,0,1,378.27,157.67Z"/><path class="cls-1" d="M362.74,331.86a1.55,1.55,0,0,1-1.17-.52l-6.32-6.85a1.6,1.6,0,0,1,2.35-2.17l5.23,5.68,5.69-5.24a1.6,1.6,0,0,1,2.16,2.36l-6.85,6.32A1.62,1.62,0,0,1,362.74,331.86Z"/><path class="cls-1" d="M10.77,30.09a1.58,1.58,0,0,1-1.28-.64L3.28,21.14a1.6,1.6,0,0,1,.33-2.23l8.3-6.21a1.6,1.6,0,0,1,1.92,2.57l-7,5.24,5.25,7a1.59,1.59,0,0,1-1.28,2.55Z"/><path class="cls-2" d="M314.59,113.13a1.6,1.6,0,0,1-1.15-2.71l12-12.41L313,86a1.6,1.6,0,1,1,2.22-2.3l13.56,13.08a1.61,1.61,0,0,1,0,2.26l-13.08,13.56A1.57,1.57,0,0,1,314.59,113.13Z"/><path class="cls-2" d="M278.47,298.11a1.6,1.6,0,0,1-1.43-.87l-6.5-12.75a1.59,1.59,0,1,1,2.84-1.45l5.78,11.32,11.32-5.78a1.6,1.6,0,0,1,1.46,2.85l-12.75,6.5A1.57,1.57,0,0,1,278.47,298.11Z"/><path class="cls-1" d="M111.39,416.12a1.6,1.6,0,0,1-.79-3l5.88-3.32-3.31-5.87a1.6,1.6,0,1,1,2.78-1.57l4.1,7.27a1.6,1.6,0,0,1,.15,1.21,1.58,1.58,0,0,1-.75,1l-7.28,4.1A1.55,1.55,0,0,1,111.39,416.12Z"/><path class="cls-1" d="M70.77,283.43l-.23,0a1.6,1.6,0,0,1-1.35-1.82L70.46,273a1.59,1.59,0,0,1,1.81-1.35l8.58,1.26a1.6,1.6,0,0,1-.47,3.17l-7-1-1,7A1.59,1.59,0,0,1,70.77,283.43Z"/><path class="cls-1" d="M436.53,413.15a1.6,1.6,0,0,1-1.43-.88L432,406a1.61,1.61,0,0,1-.09-1.22,1.58,1.58,0,0,1,.8-.92l6.24-3.14a1.6,1.6,0,1,1,1.44,2.85L435.53,406l2.43,4.82a1.6,1.6,0,0,1-.71,2.14A1.55,1.55,0,0,1,436.53,413.15Z"/><path class="cls-1" d="M210.72,106.65a1.58,1.58,0,0,1-1.52-1.11l-6.15-19.27-19.27,6.15a1.6,1.6,0,0,1-1-3l20.8-6.64a1.59,1.59,0,0,1,2,1l6.64,20.79a1.59,1.59,0,0,1-1.52,2.08Z"/><path class="cls-2" d="M249.15,407.67a1.72,1.72,0,0,1-.44-.06,1.6,1.6,0,0,1-1.1-2l2.83-10-10-2.83a1.6,1.6,0,0,1,.87-3.08L252.85,393a1.58,1.58,0,0,1,1.1,2l-3.26,11.53A1.6,1.6,0,0,1,249.15,407.67Z"/><path class="cls-1" d="M413,141.18a1.67,1.67,0,0,1-.62-.12,1.61,1.61,0,0,1-.85-2.1l8.91-21.07a1.63,1.63,0,0,1,.87-.86,1.59,1.59,0,0,1,1.23,0L443.61,126a1.6,1.6,0,0,1-1.24,2.94l-19.61-8.29-8.29,19.61A1.58,1.58,0,0,1,413,141.18Z"/><path class="cls-3" d="M421.3,390.69a1.65,1.65,0,0,1-.77-.19,1.6,1.6,0,0,1-.63-2.17l8-14.75-14.75-8a1.6,1.6,0,0,1,1.53-2.81l16.15,8.81a1.61,1.61,0,0,1,.64,2.17l-8.81,16.15A1.6,1.6,0,0,1,421.3,390.69Z"/><path class="cls-2" d="M106.21,82.37a1.59,1.59,0,0,1-1.49-1l-6.47-17a1.6,1.6,0,1,1,3-1.14l5.91,15.51,15.5-5.9a1.6,1.6,0,0,1,1.14,3l-17,6.47A1.63,1.63,0,0,1,106.21,82.37Z"/><path class="cls-1" d="M311.53,348.56A1.6,1.6,0,0,1,310,347.3l-5-23.18a1.59,1.59,0,0,1,1.23-1.9l23.18-5a1.6,1.6,0,0,1,.67,3.13L308.48,325l4.62,21.62a1.61,1.61,0,0,1-1.23,1.9A2,2,0,0,1,311.53,348.56Z"/><path class="cls-1" d="M160.77,282.83a1.6,1.6,0,0,1-1.6-1.52l-1.14-21a1.59,1.59,0,0,1,1.51-1.68l21-1.14a1.6,1.6,0,1,1,.17,3.19l-19.41,1.05,1.05,19.41a1.59,1.59,0,0,1-1.51,1.68Z"/><path class="cls-1" d="M315.41,216.07A1.61,1.61,0,0,1,315,216l-5.84-1.69a1.58,1.58,0,0,1-1.09-2l1.68-5.84a1.61,1.61,0,0,1,2-1.09,1.59,1.59,0,0,1,1.09,2l-1.24,4.3,4.3,1.24a1.59,1.59,0,0,1-.44,3.13Z"/><path class="cls-1" d="M136.89,109.14a1.69,1.69,0,0,1-.5-.08L129,106.64a1.6,1.6,0,0,1,1-3l5.86,1.92,1.93-5.86a1.6,1.6,0,1,1,3,1L138.4,108A1.59,1.59,0,0,1,136.89,109.14Z"/><path class="cls-1" d="M222.31,439.36h-.15l-22.33-2.14a1.6,1.6,0,0,1,.3-3.18l20.74,2,2-20.74a1.6,1.6,0,1,1,3.18.3l-2.13,22.34A1.6,1.6,0,0,1,222.31,439.36Z"/><path class="cls-1" d="M130.9,55.06a1.6,1.6,0,0,1-1-.33l-3.18-2.42a1.6,1.6,0,0,1-.3-2.24l2.42-3.18a1.6,1.6,0,1,1,2.54,1.93L130,50.73l1.91,1.46a1.6,1.6,0,0,1-1,2.87Z"/><path class="cls-3" d="M61.43,440.46h0l-5.54-.09a1.59,1.59,0,0,1-1.57-1.62l.09-5.54A1.57,1.57,0,0,1,56,431.64a1.6,1.6,0,0,1,1.57,1.63l-.06,3.93,3.94.06a1.6,1.6,0,0,1,0,3.2Z"/><path class="cls-3" d="M146.74,358a1.83,1.83,0,0,1-.4-.05,1.61,1.61,0,0,1-1.15-1.95l1.59-6.21-6.2-1.59a1.6,1.6,0,0,1,.79-3.1l7.76,2a1.6,1.6,0,0,1,1.15,1.95l-2,7.75A1.59,1.59,0,0,1,146.74,358Z"/><path class="cls-1" d="M344.56,444.15h-.18l-14.47-1.68a1.6,1.6,0,1,1,.36-3.17l12.89,1.49,1.49-12.88a1.6,1.6,0,1,1,3.17.36l-1.67,14.47A1.61,1.61,0,0,1,344.56,444.15Z"/><path class="cls-3" d="M13.81,408.92a1.6,1.6,0,0,1-1.56-1.25L7.93,388.2a1.6,1.6,0,0,1,1.21-1.91L28.62,382a1.61,1.61,0,0,1,1.91,1.22,1.59,1.59,0,0,1-1.22,1.9l-17.91,4,4,17.92a1.61,1.61,0,0,1-1.21,1.91A2.07,2.07,0,0,1,13.81,408.92Z"/><path class="cls-1" d="M28.19,320.53a1.64,1.64,0,0,1-1.26-.6,1.61,1.61,0,0,1,.26-2.25l17.06-13.56L30.69,287.07a1.6,1.6,0,1,1,2.5-2l14.55,18.31a1.59,1.59,0,0,1-.25,2.24L29.18,320.18A1.54,1.54,0,0,1,28.19,320.53Z"/><path class="cls-1" d="M224.34,11.49a1.58,1.58,0,0,1-.73-.18,1.59,1.59,0,0,1-.69-2.15l2.87-5.56a1.59,1.59,0,0,1,2.15-.69l5.56,2.87A1.6,1.6,0,1,1,232,8.62L227.9,6.48l-2.14,4.14A1.59,1.59,0,0,1,224.34,11.49Z"/><path class="cls-1" d="M330.48,250.91a1.63,1.63,0,0,1-1.36-.75l-6.43-10.25a1.6,1.6,0,0,1,2.71-1.7l5.58,8.9,8.9-5.59a1.6,1.6,0,0,1,1.7,2.71l-10.25,6.43A1.58,1.58,0,0,1,330.48,250.91Z"/><path class="cls-3" d="M253.86,440.85a1.64,1.64,0,0,1-1-.35,1.59,1.59,0,0,1-.26-2.24l12.11-15.36a1.59,1.59,0,0,1,2.24-.26l15.36,12.11a1.6,1.6,0,1,1-2,2.51l-14.1-11.13-11.12,14.11A1.61,1.61,0,0,1,253.86,440.85Z"/><path class="cls-1" d="M38.59,23a1.57,1.57,0,0,1-1.1-.44,1.6,1.6,0,0,1-.05-2.26l3.67-3.85-3.86-3.67a1.6,1.6,0,1,1,2.2-2.32l5,4.77a1.6,1.6,0,0,1,.05,2.26l-4.77,5A1.57,1.57,0,0,1,38.59,23Z"/><path class="cls-1" d="M246.66,138.15a1.59,1.59,0,0,1-1.47-1L238,120.55a1.6,1.6,0,0,1,.83-2.1l16.64-7.21a1.6,1.6,0,1,1,1.27,2.93l-15.17,6.57,6.58,15.17a1.62,1.62,0,0,1-.84,2.11A1.55,1.55,0,0,1,246.66,138.15Z"/><path class="cls-2" d="M181.34,350.09h-.19l-7.37-.84a1.6,1.6,0,1,1,.36-3.18l5.79.66.66-5.78a1.6,1.6,0,1,1,3.17.36l-.84,7.37A1.59,1.59,0,0,1,181.34,350.09Z"/><path class="cls-1" d="M230,153.57a1.71,1.71,0,0,1-.62-.12l-8.81-3.68a1.6,1.6,0,0,1-.86-2.09l3.68-8.82a1.6,1.6,0,0,1,2.95,1.23l-3.06,7.34,7.34,3.07a1.6,1.6,0,0,1-.62,3.07Z"/><path class="cls-1" d="M285.71,9.92a1.63,1.63,0,0,1-1-.38l-3.82-3.28a1.6,1.6,0,0,1,2.07-2.43l2.62,2.24,2.23-2.61a1.6,1.6,0,1,1,2.43,2.08l-3.27,3.82A1.61,1.61,0,0,1,285.71,9.92Z"/><path class="cls-1" d="M333.43,78.61a1.6,1.6,0,0,1-1.32-.69l-7.18-10.47a1.6,1.6,0,0,1,.41-2.22l10.47-7.18a1.6,1.6,0,1,1,1.81,2.63L328.47,67l6.28,9.15a1.59,1.59,0,0,1-.42,2.22A1.57,1.57,0,0,1,333.43,78.61Z"/><path class="cls-1" d="M93.13,37.46a1.6,1.6,0,0,1-.75-3l19-10.12-10.12-19a1.6,1.6,0,0,1,2.82-1.5L115,24.24a1.62,1.62,0,0,1,.12,1.22,1.65,1.65,0,0,1-.78.94L93.88,37.27A1.55,1.55,0,0,1,93.13,37.46Z"/><path class="cls-1" d="M3.21,306a1.54,1.54,0,0,1-1-.37A1.59,1.59,0,0,1,2,303.35l6.4-7.79-7.8-6.4a1.6,1.6,0,0,1,2-2.47l9,7.42a1.6,1.6,0,0,1,.22,2.25l-7.41,9A1.6,1.6,0,0,1,3.21,306Z"/><path class="cls-1" d="M39.38,364.61a1.62,1.62,0,0,1-1.45-.91,1.6,1.6,0,0,1,.76-2.13l10.85-5.2-5.2-10.85a1.6,1.6,0,1,1,2.88-1.38l5.89,12.29a1.62,1.62,0,0,1,.07,1.22,1.63,1.63,0,0,1-.82.91l-12.29,5.89A1.58,1.58,0,0,1,39.38,364.61Z"/><path class="cls-1" d="M294.14,86.72a1.06,1.06,0,0,1-.25,0l-19.8-3.12a1.61,1.61,0,0,1-1.33-1.83L275.89,62a1.59,1.59,0,1,1,3.15.5l-2.87,18.22,18.22,2.88a1.59,1.59,0,0,1-.25,3.17Z"/><path class="cls-1" d="M302.78,155.85a1.53,1.53,0,0,1-.47-.07,1.59,1.59,0,0,1-1.06-2l5-16.29-16.3-5a1.6,1.6,0,1,1,.94-3.06l17.82,5.45a1.6,1.6,0,0,1,.94.77,1.62,1.62,0,0,1,.12,1.22l-5.44,17.82A1.6,1.6,0,0,1,302.78,155.85Z"/><path class="cls-1" d="M324.44,191.16a1.6,1.6,0,0,1-1.51-2.12l5.76-16.8a1.6,1.6,0,0,1,2-1l16.8,5.77a1.6,1.6,0,1,1-1,3l-15.29-5.24L326,190.08A1.59,1.59,0,0,1,324.44,191.16Z"/><path class="cls-2" d="M148.42,234.48a1.59,1.59,0,0,1-.76-.19l-3.9-2.11a1.6,1.6,0,1,1,1.53-2.81l2.49,1.35,1.35-2.5a1.6,1.6,0,0,1,2.81,1.53l-2.11,3.9A1.6,1.6,0,0,1,148.42,234.48Z"/><path class="cls-1" d="M92.26,158.29a1.61,1.61,0,0,1-1.41-.83L88.94,154a1.6,1.6,0,0,1,2.8-1.54l1.15,2.08L95,153.38a1.6,1.6,0,1,1,1.54,2.8L93,158.09A1.55,1.55,0,0,1,92.26,158.29Z"/><path class="cls-1" d="M157.48,86.6a1.6,1.6,0,0,1-1.6-1.6l0-9.9-9.9,0h0a1.6,1.6,0,1,1,0-3.2l11.5,0h0a1.6,1.6,0,0,1,1.6,1.59l0,11.5a1.6,1.6,0,0,1-1.59,1.61Z"/><path class="cls-1" d="M50.82,405.22a1.6,1.6,0,0,1-.5-3.12l6.94-2.29L55,392.87a1.6,1.6,0,0,1,3-1l2.79,8.46a1.6,1.6,0,0,1-1,2l-8.46,2.79A1.8,1.8,0,0,1,50.82,405.22Z"/><path class="cls-1" d="M325.82,406.26l-.19,0a1.6,1.6,0,0,1-1.4-1.78l2.21-18.14-18.14-2.21a1.6,1.6,0,1,1,.38-3.17l19.73,2.4a1.61,1.61,0,0,1,1.4,1.78l-2.4,19.73A1.61,1.61,0,0,1,325.82,406.26Z"/><path class="cls-1" d="M114.66,181a2.2,2.2,0,0,1-.36,0,1.6,1.6,0,0,1-1.19-1.93l1.2-5.14a1.62,1.62,0,0,1,1.93-1.2l5.14,1.21a1.6,1.6,0,1,1-.73,3.12l-3.59-.85-.84,3.59A1.61,1.61,0,0,1,114.66,181Z"/><path class="cls-1" d="M102,128.54a1.61,1.61,0,0,1-1.48-1l-4.32-10.23a1.6,1.6,0,0,1,.85-2.09l10.23-4.32a1.6,1.6,0,1,1,1.25,2.94l-8.76,3.7,3.7,8.75a1.61,1.61,0,0,1-.85,2.1A1.57,1.57,0,0,1,102,128.54Z"/><path class="cls-1" d="M4.62,74.68A1.59,1.59,0,0,1,3.48,72L7,68.38,3.42,64.86a1.6,1.6,0,1,1,2.24-2.28l4.72,4.65a1.6,1.6,0,0,1,0,2.26L5.76,74.21A1.58,1.58,0,0,1,4.62,74.68Z"/><path class="cls-1" d="M450.66,261.43a1.6,1.6,0,0,1-1.2-.54l-3.13-3.56a1.59,1.59,0,0,1,.14-2.25l3.55-3.14a1.6,1.6,0,0,1,2.12,2.4l-2.36,2.08,2.08,2.36a1.6,1.6,0,0,1-1.2,2.65Z"/><path class="cls-1" d="M405.72,251.24a1.66,1.66,0,0,1-.9-.27,1.59,1.59,0,0,1-.42-2.22l4.19-6.18a1.59,1.59,0,0,1,2.22-.42l6.17,4.19a1.6,1.6,0,0,1-1.8,2.64l-4.85-3.29L407,250.54A1.58,1.58,0,0,1,405.72,251.24Z"/><path class="cls-1" d="M256.32,334.48a1.51,1.51,0,0,1-.84-.24A1.59,1.59,0,0,1,255,332L262.5,320a1.6,1.6,0,0,1,2.2-.51L276.75,327a1.6,1.6,0,0,1-1.7,2.71L264.36,323l-6.68,10.69A1.6,1.6,0,0,1,256.32,334.48Z"/><path class="cls-3" d="M351,155.85a1.59,1.59,0,0,1-1-.38L333,141.29a1.58,1.58,0,0,1-.57-1.08,1.62,1.62,0,0,1,.37-1.17L347,122.13a1.6,1.6,0,1,1,2.45,2.05L336.3,139.87,352,153a1.6,1.6,0,0,1-1,2.83Z"/><path class="cls-1" d="M297.43,444.25h-.09a1.6,1.6,0,0,1-1.51-1.68l.36-6.54a1.61,1.61,0,0,1,1.69-1.51l6.53.36a1.6,1.6,0,0,1-.17,3.19l-4.94-.27-.27,4.94A1.61,1.61,0,0,1,297.43,444.25Z"/><path class="cls-1" d="M852.94,261.5a1.6,1.6,0,0,1-1.59,1.6l-20,.14a1.64,1.64,0,0,1-1.13-.46,1.62,1.62,0,0,1-.48-1.13l-.14-20h0a1.6,1.6,0,0,1,3.2,0L833,260l18.38-.13a1.6,1.6,0,0,1,1.61,1.59Z"/><path class="cls-1" d="M657.31,304.08a1.59,1.59,0,0,1-3.11.5l-1.66-5-5,1.66a1.6,1.6,0,0,1-1-3l6.56-2.15a1.59,1.59,0,0,1,2,1l2.16,6.55A1.49,1.49,0,0,1,657.31,304.08Z"/><path class="cls-1" d="M853,356a1.74,1.74,0,0,1,0,.39,1.6,1.6,0,0,1-2,1.15l-6.68-1.71a1.62,1.62,0,0,1-1-.74,1.55,1.55,0,0,1-.17-1.21l1.71-6.68a1.6,1.6,0,1,1,3.1.79l-1.32,5.14,5.14,1.32A1.59,1.59,0,0,1,853,356Z"/><path class="cls-2" d="M868,150.36a1.6,1.6,0,0,1-1.33,1.57l-11.08,1.91,1.9,11.08a1.59,1.59,0,0,1-3.14.54l-2.18-12.66a1.59,1.59,0,0,1,1.3-1.84l12.66-2.18a1.59,1.59,0,0,1,1.84,1.3A1.33,1.33,0,0,1,868,150.36Z"/><path class="cls-1" d="M706.74,69a1.6,1.6,0,0,1-1.36,1.58l-5,.75.75,5a1.6,1.6,0,1,1-3.16.48l-1-6.6a1.59,1.59,0,0,1,1.34-1.82l6.6-1a1.6,1.6,0,0,1,1.82,1.34A1.94,1.94,0,0,1,706.74,69Z"/><path class="cls-3" d="M634.71,395.88a1.6,1.6,0,0,1-1.23,1.55l-4.25,1,1,4.26a1.6,1.6,0,0,1-3.11.74l-1.39-5.81a1.59,1.59,0,0,1,1.18-1.92l5.81-1.4a1.59,1.59,0,0,1,1.92,1.18A1.65,1.65,0,0,1,634.71,395.88Z"/><path class="cls-1" d="M474.18,120.08a1.59,1.59,0,0,1-1.26,1.56L464,123.58a1.58,1.58,0,0,1-1.2-.22,1.57,1.57,0,0,1-.7-1l-1.94-8.93a1.6,1.6,0,1,1,3.12-.68l1.6,7.37,7.37-1.6a1.6,1.6,0,0,1,1.91,1.22A2,2,0,0,1,474.18,120.08Z"/><path class="cls-1" d="M682.11,208.5v0a1.61,1.61,0,0,1-1.64,1.56l-4.86-.13-.13,4.86a1.6,1.6,0,0,1-3.2-.09l.17-6.45a1.61,1.61,0,0,1,1.64-1.56l6.46.17A1.61,1.61,0,0,1,682.11,208.5Z"/><path class="cls-1" d="M710.88,387.36a1.6,1.6,0,0,1-2.13,1.51L694,383.67a1.6,1.6,0,0,1-.91-.82,1.57,1.57,0,0,1-.07-1.22l5.2-14.74a1.6,1.6,0,1,1,3,1.06l-4.67,13.24,13.24,4.66A1.61,1.61,0,0,1,710.88,387.36Z"/><path class="cls-3" d="M500.28,243.14a1.84,1.84,0,0,1,0,.33,1.6,1.6,0,0,1-1.89,1.24l-20.9-4.41-4.41,20.9a1.6,1.6,0,0,1-3.13-.66l4.74-22.47a1.62,1.62,0,0,1,.69-1,1.59,1.59,0,0,1,1.2-.22L499,241.58A1.59,1.59,0,0,1,500.28,243.14Z"/><path class="cls-2" d="M630.08,32.06a1.27,1.27,0,0,1,0,.28L628.88,39a1.61,1.61,0,0,1-1.86,1.3l-6.63-1.18a1.6,1.6,0,0,1,.55-3.15l5.07.9.9-5.06a1.6,1.6,0,0,1,3.17.27Z"/><path class="cls-1" d="M646.68,266.42a1.57,1.57,0,0,1-.25.86l-2.16,3.36a1.6,1.6,0,0,1-2.69-1.72l1.29-2-2-1.29a1.6,1.6,0,0,1,1.73-2.69l3.36,2.16A1.6,1.6,0,0,1,646.68,266.42Z"/><path class="cls-1" d="M557.77,45.22a1.56,1.56,0,0,1-.37,1,1.6,1.6,0,0,1-2.25.22l-4-3.29a1.6,1.6,0,0,1-.21-2.25l3.28-4a1.6,1.6,0,0,1,2.47,2l-2.27,2.74L557.19,44A1.62,1.62,0,0,1,557.77,45.22Z"/><path class="cls-1" d="M756.43,335.57a1.6,1.6,0,0,1-2.82,1l-2-2.33-2.34,2a1.6,1.6,0,1,1-2.06-2.44l3.55-3A1.59,1.59,0,0,1,753,331l3,3.55A1.62,1.62,0,0,1,756.43,335.57Z"/><path class="cls-1" d="M663.72,31.62s0,.05,0,.08A1.59,1.59,0,0,1,662,33.21l-2.47-.13-.13,2.47a1.6,1.6,0,1,1-3.19-.16l.22-4.07a1.59,1.59,0,0,1,1.68-1.51l4.06.21A1.61,1.61,0,0,1,663.72,31.62Z"/><path class="cls-2" d="M788.79,34.16a1.61,1.61,0,0,1-.3.93l-8.66,12a1.59,1.59,0,0,1-1,.64,1.64,1.64,0,0,1-1.19-.28l-12-8.66a1.6,1.6,0,0,1,1.87-2.59l10.69,7.72,7.72-10.69a1.6,1.6,0,0,1,2.89.94Z"/><path class="cls-1" d="M745.44,215.63a1.6,1.6,0,0,1-2.72,1.14l-8.2-8.1a1.6,1.6,0,0,1,0-2.26l8.09-8.19a1.59,1.59,0,1,1,2.27,2.24l-7,7.06,7.06,7A1.59,1.59,0,0,1,745.44,215.63Z"/><path class="cls-1" d="M532.27,412.43a1.67,1.67,0,0,1-.12.62,1.6,1.6,0,0,1-2.09.86l-7.16-3-3,7.15a1.6,1.6,0,1,1-2.95-1.22l3.59-8.64a1.6,1.6,0,0,1,2.09-.86l8.64,3.6A1.59,1.59,0,0,1,532.27,412.43Z"/><path class="cls-1" d="M490.4,296.48a1.6,1.6,0,0,1-3,.84l-9.19-14.92-14.93,9.18a1.6,1.6,0,1,1-1.67-2.72l16.28-10a1.59,1.59,0,0,1,2.2.52l10,16.28A1.65,1.65,0,0,1,490.4,296.48Z"/><path class="cls-1" d="M668.28,239.38a1.6,1.6,0,0,1-1,1.48L662.12,243a1.59,1.59,0,0,1-2.09-.86L657.88,237a1.6,1.6,0,0,1,3-1.22l1.53,3.7,3.7-1.53a1.59,1.59,0,0,1,2.09.86A1.66,1.66,0,0,1,668.28,239.38Z"/><path class="cls-1" d="M466.82,85a1.6,1.6,0,0,1-.59,1.24L461.53,90a1.6,1.6,0,1,1-2-2.48L463,84.72l-2.82-3.46a1.6,1.6,0,1,1,2.48-2l3.83,4.7A1.62,1.62,0,0,1,466.82,85Z"/><path class="cls-3" d="M868.28,56.3a1.6,1.6,0,0,1-3.19.1l-.66-10.07L854.36,47a1.6,1.6,0,0,1-.21-3.19L865.82,43a1.59,1.59,0,0,1,1.69,1.49l.77,11.66Z"/><path class="cls-1" d="M814.27,101.69a1.6,1.6,0,0,1-2.39,1.39l-4.41-2.52L805,105a1.59,1.59,0,1,1-2.77-1.58l3.3-5.8a1.6,1.6,0,0,1,2.18-.59l5.79,3.3A1.58,1.58,0,0,1,814.27,101.69Z"/><path class="cls-1" d="M505.59,80a1.64,1.64,0,0,1-.49,1.15l-16.7,16a1.59,1.59,0,1,1-2.21-2.3l15.54-15-15-15.54a1.6,1.6,0,0,1,2.31-2.22l16.05,16.7A1.59,1.59,0,0,1,505.59,80Z"/><path class="cls-1" d="M475.54,44.25a1.2,1.2,0,0,1-.05.38L472.61,56.4a1.61,1.61,0,0,1-1.94,1.17l-11.76-2.89a1.6,1.6,0,0,1,.76-3.1l10.21,2.5,2.51-10.21a1.6,1.6,0,0,1,3.15.38Z"/><path class="cls-2" d="M527.43,44.11a1.61,1.61,0,0,1-1.2,1.55l-6.9,1.75a1.6,1.6,0,0,1-.79-3.1L523.89,43l-1.35-5.35a1.59,1.59,0,0,1,3.09-.79l1.75,6.9A1.41,1.41,0,0,1,527.43,44.11Z"/><path class="cls-1" d="M803.43,228.2a1.58,1.58,0,0,1-1.3,1.56L782,233.63a1.65,1.65,0,0,1-1.2-.24,1.62,1.62,0,0,1-.67-1l-3.87-20.19a1.6,1.6,0,0,1,3.14-.6l3.57,18.61,18.61-3.56a1.59,1.59,0,0,1,1.87,1.26A1.71,1.71,0,0,1,803.43,228.2Z"/><path class="cls-1" d="M595.54,318.69a1.6,1.6,0,0,1-3.13.47l-1.16-3.77-3.76,1.16a1.6,1.6,0,1,1-1-3.05l5.3-1.63a1.62,1.62,0,0,1,1.22.11,1.64,1.64,0,0,1,.78.95l1.63,5.29A2,2,0,0,1,595.54,318.69Z"/><path class="cls-1" d="M893.69,301.58v0l-.22,12.69a1.6,1.6,0,0,1-1.62,1.57l-12.69-.21a1.61,1.61,0,0,1-1.57-1.6v0a1.6,1.6,0,0,1,1.63-1.57l11.09.19.18-11.09a1.6,1.6,0,0,1,3.2,0Z"/><path class="cls-1" d="M801.29,18.23a1.59,1.59,0,0,1-3.12.47l-3.42-11-11,3.41a1.6,1.6,0,1,1-.95-3.05l12.5-3.89a1.6,1.6,0,0,1,2,1l3.89,12.5A1.59,1.59,0,0,1,801.29,18.23Z"/><path class="cls-1" d="M619.08,181a2.28,2.28,0,0,1,0,.26l-.74,4.61a1.62,1.62,0,0,1-.64,1,1.58,1.58,0,0,1-1.19.28l-4.61-.74a1.59,1.59,0,1,1,.5-3.15l3,.48.48-3a1.6,1.6,0,0,1,3.18.25Z"/><path class="cls-2" d="M896.61,40.73a1.6,1.6,0,0,1-.77,1.36l-4.11,2.5a1.6,1.6,0,1,1-1.66-2.73l2.74-1.67-1.66-2.74a1.6,1.6,0,1,1,2.73-1.66l2.49,4.11A1.57,1.57,0,0,1,896.61,40.73Z"/><path class="cls-1" d="M625.53,294.2a1.59,1.59,0,0,1-1.2,1.54l-12.17,3.09a1.59,1.59,0,1,1-.78-3.09L622,293l-2.7-10.62a1.6,1.6,0,1,1,3.1-.78l3.09,12.16A1.83,1.83,0,0,1,625.53,294.2Z"/><path class="cls-1" d="M860.83,79.92a1.59,1.59,0,0,1-1.26,1.56l-4.6,1,1,4.6a1.6,1.6,0,1,1-3.12.69l-1.35-6.16a1.6,1.6,0,0,1,1.21-1.9l6.16-1.36a1.6,1.6,0,0,1,1.91,1.22A2,2,0,0,1,860.83,79.92Z"/><path class="cls-1" d="M682.35,260.57a1.39,1.39,0,0,1,0,.35l-1.44,6.52a1.59,1.59,0,0,1-1.9,1.22l-6.53-1.44a1.6,1.6,0,0,1,.69-3.12l5,1.09,1.1-5a1.6,1.6,0,0,1,3.16.34Z"/><path class="cls-1" d="M862.21,287.66a1.61,1.61,0,0,1-1.12,1.53l-13,4.05,4,12.95a1.6,1.6,0,0,1-3,.95l-4.52-14.48a1.59,1.59,0,0,1,1-2l14.48-4.52a1.58,1.58,0,0,1,2.07,1.52Z"/><path class="cls-1" d="M632,437.36a1.6,1.6,0,0,1-3,.73l-1.37-2.69L625,436.77a1.6,1.6,0,1,1-1.45-2.85l4.12-2.1a1.6,1.6,0,0,1,2.15.7l2.09,4.12A1.57,1.57,0,0,1,632,437.36Z"/><path class="cls-1" d="M716.92,229.7a1.6,1.6,0,0,1-.74,1.35l-11.79,7.49a1.58,1.58,0,0,1-2.2-.49l-7.5-11.78a1.6,1.6,0,1,1,2.7-1.72L704,235l10.44-6.64a1.6,1.6,0,0,1,2.46,1.35Z"/><path class="cls-1" d="M511.76,143.9a1.44,1.44,0,0,1-.11.57,1.59,1.59,0,0,1-2.06.92l-19-7.38-7.37,19.05a1.6,1.6,0,1,1-3-1.16l7.95-20.53a1.6,1.6,0,0,1,2.06-.92l20.54,8A1.6,1.6,0,0,1,511.76,143.9Z"/><path class="cls-1" d="M647.84,7.9a1.59,1.59,0,0,1-2,1.53l-2.37-.67-.67,2.37a1.6,1.6,0,1,1-3.07-.88l1.11-3.9a1.58,1.58,0,0,1,.76-1,1.64,1.64,0,0,1,1.21-.14l3.9,1.11A1.6,1.6,0,0,1,647.84,7.9Z"/><path class="cls-1" d="M834,319.78a1.6,1.6,0,0,1-.19.77l-4.68,8.52a1.6,1.6,0,0,1-2.81-1.54l3.92-7.12-7.12-3.91a1.6,1.6,0,1,1,1.54-2.8l8.52,4.68A1.59,1.59,0,0,1,834,319.78Z"/><path class="cls-2" d="M695.15,440.56a1.65,1.65,0,0,1-.49,1.16,1.6,1.6,0,0,1-2.26-.05l-1.95-2-2,2a1.6,1.6,0,0,1-2.22-2.31l3.17-3.05a1.58,1.58,0,0,1,1.14-.45,1.57,1.57,0,0,1,1.12.49l3.06,3.18A1.59,1.59,0,0,1,695.15,440.56Z"/><path class="cls-1" d="M673.59,92.61a1.55,1.55,0,0,1-.35,1l-7.6,9.56a1.6,1.6,0,0,1-2.5-2l6.6-8.31-8.3-6.6a1.6,1.6,0,1,1,2-2.5l9.56,7.6a1.58,1.58,0,0,1,.59,1.07A1.09,1.09,0,0,1,673.59,92.61Z"/><path class="cls-1" d="M682.57,326.89a1.65,1.65,0,0,1-.25.87L674,340.51a1.6,1.6,0,0,1-2.21.46l-12.75-8.29A1.6,1.6,0,1,1,660.8,330l11.41,7.42L679.64,326a1.59,1.59,0,0,1,2.93.88Z"/><path class="cls-3" d="M567.25,415.74a1.52,1.52,0,0,1-.12.59l-5.88,14.78a1.59,1.59,0,0,1-.86.87,1.57,1.57,0,0,1-1.22,0l-14.77-5.89a1.6,1.6,0,1,1,1.18-3l13.29,5.3,5.3-13.29a1.6,1.6,0,0,1,3.08.59Z"/><path class="cls-1" d="M469.71,312.34a1.57,1.57,0,0,1-.17.7,1.59,1.59,0,0,1-2.14.73l-3.75-1.86-1.86,3.75a1.6,1.6,0,1,1-2.86-1.42l2.57-5.18a1.6,1.6,0,0,1,2.14-.72l5.18,2.56A1.61,1.61,0,0,1,469.71,312.34Z"/><path class="cls-1" d="M894.23,354.63a1.75,1.75,0,0,1-.11.58,1.6,1.6,0,0,1-2.07.9l-6.75-2.63-2.63,6.74a1.6,1.6,0,1,1-3-1.16l3.21-8.23a1.61,1.61,0,0,1,2.08-.91l8.23,3.22A1.6,1.6,0,0,1,894.23,354.63Z"/><path class="cls-1" d="M894.47,12.31a1.54,1.54,0,0,1-.3.93,1.6,1.6,0,0,1-2.23.36l-2.6-1.87-1.86,2.6a1.6,1.6,0,0,1-2.6-1.87l2.8-3.89a1.59,1.59,0,0,1,2.23-.36l3.9,2.8A1.6,1.6,0,0,1,894.47,12.31Z"/><path class="cls-1" d="M765.3,5.57a1.6,1.6,0,0,1-.59,1.24l-12,9.88a1.6,1.6,0,0,1-2.25-.22l-9.88-12a1.6,1.6,0,1,1,2.47-2L751.9,13.2l10.78-8.86a1.59,1.59,0,0,1,2.25.22A1.54,1.54,0,0,1,765.3,5.57Z"/><path class="cls-1" d="M798.08,332.22a1.6,1.6,0,0,1-1,1.47L790,336.77a1.6,1.6,0,0,1-2.1-.84l-3.08-7.11a1.6,1.6,0,1,1,2.93-1.27l2.45,5.65,5.64-2.45a1.6,1.6,0,0,1,2.1.83A1.63,1.63,0,0,1,798.08,332.22Z"/><path class="cls-3" d="M757.13,87.59a1.65,1.65,0,0,1-.32,1,1.61,1.61,0,0,1-2.24.31l-3.36-2.53a1.6,1.6,0,0,1-.32-2.24l2.54-3.36A1.6,1.6,0,1,1,756,82.65l-1.57,2.09,2.08,1.57A1.58,1.58,0,0,1,757.13,87.59Z"/><path class="cls-1" d="M713.54,425.57a1.59,1.59,0,0,1-2.57,1.26l-4.11-3.14a1.58,1.58,0,0,1-.3-2.24l3.15-4.12a1.59,1.59,0,1,1,2.53,1.94l-2.17,2.85,2.84,2.18A1.6,1.6,0,0,1,713.54,425.57Z"/><path class="cls-1" d="M540.93,9a1.57,1.57,0,0,1-.57,1.22l-3.81,3.19a1.59,1.59,0,0,1-2.25-.2l-3.19-3.8a1.6,1.6,0,0,1,2.45-2.06L535.72,10l2.59-2.17A1.59,1.59,0,0,1,540.93,9Z"/><path class="cls-1" d="M473.09,371.68a1.69,1.69,0,0,1-.09.53,1.6,1.6,0,0,1-2,1l-4.81-1.71-1.71,4.81a1.6,1.6,0,1,1-3-1.08l2.25-6.31a1.56,1.56,0,0,1,.82-.91,1.61,1.61,0,0,1,1.22-.06l6.31,2.25A1.59,1.59,0,0,1,473.09,371.68Z"/><path class="cls-1" d="M558.62,365.71a2.09,2.09,0,0,1,0,.25l-2.77,17.47a1.59,1.59,0,1,1-3.15-.5L555.2,367l-15.89-2.51a1.6,1.6,0,0,1,.5-3.16l17.47,2.76a1.64,1.64,0,0,1,1,.64A1.59,1.59,0,0,1,558.62,365.71Z"/><path class="cls-1" d="M616.39,10.44a1.63,1.63,0,0,1-.2.76L611,20.82a1.6,1.6,0,0,1-2.81-1.53l4.47-8.21L604.4,6.61a1.6,1.6,0,1,1,1.53-2.81L615.55,9A1.61,1.61,0,0,1,616.39,10.44Z"/><path class="cls-1" d="M645.22,155.12a.49.49,0,0,1,0,.12,1.6,1.6,0,0,1-1.72,1.47l-9.35-.74a1.59,1.59,0,0,1-1.47-1.71l.74-9.36a1.59,1.59,0,1,1,3.18.25l-.61,7.76,7.77.61A1.61,1.61,0,0,1,645.22,155.12Z"/><path class="cls-1" d="M830.78,202.62v.09l-.54,9.35a1.6,1.6,0,1,1-3.2-.18l.46-7.76-7.76-.45a1.6,1.6,0,1,1,.19-3.19l9.35.54A1.6,1.6,0,0,1,830.78,202.62Z"/><path class="cls-1" d="M671.52,419.88a1.73,1.73,0,0,1-.11.6,1.56,1.56,0,0,1-.86.87l-17.7,7.49a1.6,1.6,0,1,1-1.25-2.94L667.83,419,661,402.8a1.58,1.58,0,0,1,.85-2.09,1.6,1.6,0,0,1,2.09.85l7.49,17.7A1.67,1.67,0,0,1,671.52,419.88Z"/><path class="cls-3" d="M660.27,189.72a1.6,1.6,0,0,1-3,.76l-5.13-9.41-9.42,5.12a1.6,1.6,0,0,1-1.52-2.81L652,177.49a1.61,1.61,0,0,1,2.17.64L660.07,189A1.49,1.49,0,0,1,660.27,189.72Z"/><path class="cls-2" d="M770.91,289.94a1.55,1.55,0,0,1,0,.37l-3.3,14.08a1.58,1.58,0,0,1-.72,1,1.63,1.63,0,0,1-1.2.2l-14.08-3.31a1.6,1.6,0,1,1,.73-3.11l12.52,2.94,2.94-12.52a1.6,1.6,0,0,1,3.15.36Z"/><path class="cls-1" d="M467.8,21.25a1.6,1.6,0,0,1-1.06,1.5L454.69,27.1a1.6,1.6,0,0,1-1.09-3l10.56-3.8L460.35,9.74a1.6,1.6,0,0,1,3-1.09l4.34,12.06A1.47,1.47,0,0,1,467.8,21.25Z"/><path class="cls-2" d="M548.47,207.31a1.59,1.59,0,0,1-1.26,1.56l-20.51,4.41a1.6,1.6,0,0,1-1.9-1.23l-4.4-20.5a1.6,1.6,0,1,1,3.12-.67l4.07,18.94,18.94-4.07a1.59,1.59,0,0,1,1.9,1.23A1.24,1.24,0,0,1,548.47,207.31Z"/><path class="cls-1" d="M728.92,323.85a1.6,1.6,0,0,1-.74,1.35l-12.77,8.23a1.58,1.58,0,0,1-1.2.22,1.61,1.61,0,0,1-1-.7L705,320.18a1.6,1.6,0,1,1,2.69-1.73L715,329.88l11.42-7.37a1.61,1.61,0,0,1,2.21.48A1.63,1.63,0,0,1,728.92,323.85Z"/><path class="cls-1" d="M892,433.21a1.6,1.6,0,0,1-2.7,1.16l-10.79-10.3a1.6,1.6,0,0,1-.05-2.26L888.73,411a1.6,1.6,0,1,1,2.31,2.21l-9.19,9.62,9.62,9.19A1.62,1.62,0,0,1,892,433.21Z"/><path class="cls-1" d="M719.31,152.17a1.6,1.6,0,0,1-1.55,1.6l-5.14.15a1.6,1.6,0,0,1-1.64-1.56l-.15-5.13a1.58,1.58,0,0,1,1.55-1.64,1.6,1.6,0,0,1,1.65,1.55l.1,3.53,3.54-.1a1.6,1.6,0,0,1,1.64,1.55Z"/><path class="cls-1" d="M738.49,97.6a1.59,1.59,0,0,1-2.07,1.53l-13.89-4.32a1.65,1.65,0,0,1-.94-.78,1.67,1.67,0,0,1-.11-1.22l4.33-13.89a1.6,1.6,0,0,1,3.05,1L725,92.23l12.36,3.85A1.59,1.59,0,0,1,738.49,97.6Z"/><path class="cls-1" d="M648.1,55.75a1.74,1.74,0,0,1-.08.5l-6,18.41a1.6,1.6,0,0,1-2,1l-18.41-6a1.6,1.6,0,0,1,1-3l16.9,5.52L645,55.25a1.6,1.6,0,0,1,3.12.5Z"/><path class="cls-1" d="M685.17,162.49a1.62,1.62,0,0,1-.35,1,1.59,1.59,0,0,1-2.24.26l-8.06-6.35a1.6,1.6,0,0,1-.27-2.25l6.36-8.06a1.6,1.6,0,0,1,2.51,2l-5.37,6.81,6.81,5.36A1.61,1.61,0,0,1,685.17,162.49Z"/><path class="cls-1" d="M608.21,382.5a2,2,0,0,1,0,.34,1.6,1.6,0,0,1-1.9,1.22l-15.19-3.26L587.82,396a1.6,1.6,0,1,1-3.12-.67l3.6-16.75a1.58,1.58,0,0,1,1.89-1.23l16.76,3.6A1.59,1.59,0,0,1,608.21,382.5Z"/><path class="cls-3" d="M760.28,251.82a1.64,1.64,0,0,1,0,.38l-4.31,18.08a1.6,1.6,0,0,1-3.11-.74L756.76,253l-16.53-3.94A1.6,1.6,0,0,1,741,246l18.08,4.31A1.6,1.6,0,0,1,760.28,251.82Z"/><path class="cls-1" d="M513.68,261.76a1.6,1.6,0,0,1-1,1.5l-5.33,2,2,5.33a1.6,1.6,0,0,1-3,1.1l-2.51-6.83a1.61,1.61,0,0,1,.05-1.22,1.56,1.56,0,0,1,.9-.83l6.83-2.51a1.6,1.6,0,0,1,2.05.95A1.78,1.78,0,0,1,513.68,261.76Z"/><path class="cls-1" d="M622.84,238.43a1.66,1.66,0,0,1,0,.32l-3.39,16.65a1.6,1.6,0,0,1-1.89,1.25l-16.65-3.4a1.6,1.6,0,0,1,.64-3.13l15.08,3.08,3.08-15.08a1.6,1.6,0,0,1,3.16.31Z"/><path class="cls-1" d="M752.63,53.35a2,2,0,0,1,0,.23,1.59,1.59,0,0,1-1.81,1.35l-21.08-3a1.59,1.59,0,0,1-1.36-1.8l3-21.09a1.6,1.6,0,1,1,3.17.45L731.75,49l19.51,2.8A1.59,1.59,0,0,1,752.63,53.35Z"/><path class="cls-1" d="M606.48,424.2a1.6,1.6,0,0,1-1.12,1.53l-8.69,2.73,2.74,8.69a1.6,1.6,0,1,1-3,1l-3.22-10.21a1.61,1.61,0,0,1,1.05-2l10.21-3.21a1.59,1.59,0,0,1,2.08,1.52Z"/><path class="cls-1" d="M559,170.89a1.6,1.6,0,0,1-2.89.94l-2.2-3-3,2.2a1.6,1.6,0,1,1-1.89-2.59l4.31-3.14a1.59,1.59,0,0,1,2.23.35l3.15,4.31A1.66,1.66,0,0,1,559,170.89Z"/><path class="cls-1" d="M591.92,272.92a1.6,1.6,0,0,1-.76,1.37l-14.95,9.13a1.6,1.6,0,0,1-1.21.18,1.58,1.58,0,0,1-1-.72l-9.13-14.95a1.6,1.6,0,0,1,2.73-1.66l8.3,13.58,13.58-8.29a1.6,1.6,0,0,1,2.2.53A1.58,1.58,0,0,1,591.92,272.92Z"/><path class="cls-2" d="M716.54,184.26a1.59,1.59,0,0,1-.45,1.11L706.73,195a1.6,1.6,0,0,1-2.26,0l-9.67-9.36a1.6,1.6,0,0,1,2.22-2.3l8.52,8.25,8.25-8.52a1.6,1.6,0,0,1,2.75,1.11Z"/><path class="cls-1" d="M551.05,73.65a1.64,1.64,0,0,1-.19.75l-8.41,15.73a1.6,1.6,0,0,1-2.82-1.5l7.65-14.32L533,66.66a1.61,1.61,0,0,1-.65-2.17,1.59,1.59,0,0,1,2.16-.65l15.73,8.4a1.64,1.64,0,0,1,.78,1A1.77,1.77,0,0,1,551.05,73.65Z"/><path class="cls-1" d="M819.43,364.45a1.53,1.53,0,0,1,0,.3,1.59,1.59,0,0,1-1.86,1.27L811,364.79a1.62,1.62,0,0,1-1-.67,1.58,1.58,0,0,1-.25-1.19l1.23-6.57a1.6,1.6,0,0,1,3.14.58l-.94,5,5,.93A1.61,1.61,0,0,1,819.43,364.45Z"/><path class="cls-1" d="M833.38,54.79a1.61,1.61,0,0,1-.25.86l-11.46,18a1.61,1.61,0,0,1-2.21.49l-18-11.46a1.6,1.6,0,0,1,1.72-2.7l16.65,10.61,10.6-16.66a1.6,1.6,0,0,1,3,.86Z"/><path class="cls-1" d="M600,166.06a1.58,1.58,0,0,1-.37,1L592,176.25a1.6,1.6,0,0,1-2.25.21l-9.18-7.64a1.6,1.6,0,0,1,2.05-2.46l7.94,6.62,6.62-7.95a1.6,1.6,0,0,1,2.83,1Z"/><path class="cls-1" d="M680.46,9a1.6,1.6,0,0,1-1.07,1.51L675.28,12a1.6,1.6,0,0,1-2-1l-1.46-4.11a1.6,1.6,0,1,1,3-1.07l.93,2.6,2.6-.92a1.59,1.59,0,0,1,2,1A1.42,1.42,0,0,1,680.46,9Z"/><path class="cls-1" d="M517.79,390.45a1.6,1.6,0,0,1-1.45,1.59l-23,2.12a1.6,1.6,0,0,1-1.74-1.44l-2.12-23a1.6,1.6,0,1,1,3.19-.29l2,21.36,21.36-2a1.6,1.6,0,0,1,1.74,1.44A.76.76,0,0,1,517.79,390.45Z"/><path class="cls-1" d="M860.07,238.41a1.6,1.6,0,0,1-3,.76l-1.08-2-2,1.08a1.6,1.6,0,1,1-1.52-2.81l3.4-1.84a1.6,1.6,0,0,1,2.17.65l1.83,3.4A1.6,1.6,0,0,1,860.07,238.41Z"/><path class="cls-1" d="M583.07,242.78a1.58,1.58,0,0,1-.37,1L580,247a1.6,1.6,0,1,1-2.45-2l1.69-2-2-1.69a1.6,1.6,0,1,1,2-2.45l3.24,2.71A1.6,1.6,0,0,1,583.07,242.78Z"/><path class="cls-1" d="M805.09,437a1.6,1.6,0,0,1-2.54,1.29l-6.78-4.93-4.93,6.78a1.6,1.6,0,1,1-2.59-1.88l5.87-8.07a1.59,1.59,0,0,1,2.23-.36l8.08,5.87A1.6,1.6,0,0,1,805.09,437Z"/><path class="cls-3" d="M504.36,15a1.82,1.82,0,0,1,0,.32l-4.1,20.4A1.58,1.58,0,0,1,498.35,37a1.6,1.6,0,0,1-1.25-1.88l3.78-18.84-18.83-3.78a1.6,1.6,0,1,1,.63-3.14l20.4,4.1A1.6,1.6,0,0,1,504.36,15Z"/><path class="cls-1" d="M489.21,182.29a.66.66,0,0,1,0,.14,1.59,1.59,0,0,1-1.72,1.46l-11.62-1-1,11.61a1.6,1.6,0,0,1-3.19-.26l1.1-13.21a1.59,1.59,0,0,1,1.72-1.46l13.21,1.09A1.6,1.6,0,0,1,489.21,182.29Z"/><path class="cls-3" d="M831.14,169a1.57,1.57,0,0,1-.14.66,1.6,1.6,0,0,1-2.11.8l-13.83-6.19-6.19,13.83A1.6,1.6,0,1,1,806,176.8l6.84-15.29a1.61,1.61,0,0,1,2.12-.8l15.29,6.84A1.61,1.61,0,0,1,831.14,169Z"/><path class="cls-2" d="M646.18,210.15a1.57,1.57,0,0,1-.63,1.28l-10.13,7.63a1.59,1.59,0,0,1-2.24-.31l-7.63-10.13a1.6,1.6,0,0,1,2.55-1.92l6.67,8.85,8.85-6.67a1.6,1.6,0,0,1,2.24.31A1.58,1.58,0,0,1,646.18,210.15Z"/><path class="cls-1" d="M739,127.1a1.59,1.59,0,0,1-3,.79L734.3,125l-2.93,1.67a1.6,1.6,0,0,1-1.58-2.78l4.31-2.46a1.59,1.59,0,0,1,2.18.6l2.46,4.31A1.51,1.51,0,0,1,739,127.1Z"/><path class="cls-1" d="M779.94,380.41a1.6,1.6,0,0,1-3.15.4l-5-19.27-19.27,5a1.6,1.6,0,1,1-.8-3.09l20.82-5.36a1.55,1.55,0,0,1,1.21.17,1.59,1.59,0,0,1,.74,1L779.88,380A1.32,1.32,0,0,1,779.94,380.41Z"/><path class="cls-3" d="M896.61,269.09a1.61,1.61,0,0,1-.91,1.45l-11.09,5.26a1.6,1.6,0,0,1-2.13-.76L877.22,264a1.6,1.6,0,1,1,2.89-1.37l4.57,9.64,9.65-4.58a1.6,1.6,0,0,1,2.13.76A1.64,1.64,0,0,1,896.61,269.09Z"/><path class="cls-1" d="M665.13,365.83a1.61,1.61,0,0,1-1,1.49l-15.9,6.15a1.6,1.6,0,0,1-2.07-.92L640,356.65a1.6,1.6,0,1,1,3-1.15l5.57,14.41L663,364.34a1.59,1.59,0,0,1,2.06.91A1.46,1.46,0,0,1,665.13,365.83Z"/><path class="cls-1" d="M500.48,200.19v.08l-.55,11.31a1.59,1.59,0,0,1-1.68,1.52l-11.32-.55a1.6,1.6,0,0,1,.16-3.19l9.72.47.48-9.72a1.6,1.6,0,0,1,3.19.08Z"/><path class="cls-1" d="M685.35,53A1.6,1.6,0,0,1,684,54.55l-9.76,1.59,1.59,9.76a1.6,1.6,0,0,1-3.15.51l-1.85-11.34a1.59,1.59,0,0,1,1.32-1.83l11.34-1.85a1.6,1.6,0,0,1,1.83,1.32A1.18,1.18,0,0,1,685.35,53Z"/><path class="cls-1" d="M895.68,78.19a1.56,1.56,0,0,1-.31.94,1.6,1.6,0,0,1-2.23.35l-4.9-3.55a1.61,1.61,0,0,1-.36-2.24l3.56-4.9A1.6,1.6,0,0,1,894,70.67l-2.62,3.61L895,76.9A1.59,1.59,0,0,1,895.68,78.19Z"/><path class="cls-3" d="M610,66.32a1.6,1.6,0,0,1-2.48,1.33L589,55.41,576.73,73.93a1.6,1.6,0,0,1-2.67-1.77l13.12-19.84a1.6,1.6,0,0,1,2.21-.46L609.24,65A1.6,1.6,0,0,1,610,66.32Z"/><path class="cls-1" d="M784.15,81.84a1.63,1.63,0,0,1-.52,1.18l-6.85,6.32A1.6,1.6,0,0,1,774.61,87l5.68-5.24-5.24-5.68a1.6,1.6,0,1,1,2.35-2.16l6.32,6.85A1.58,1.58,0,0,1,784.15,81.84Z"/><path class="cls-1" d="M482.38,433.82a1.58,1.58,0,0,1-.64,1.28l-8.31,6.2a1.6,1.6,0,0,1-2.24-.32l-6.2-8.31a1.6,1.6,0,0,1,2.56-1.91l5.25,7,7-5.25a1.6,1.6,0,0,1,2.55,1.28Z"/><path class="cls-1" d="M565.42,130a1.6,1.6,0,0,1-2.71,1.15l-12.41-12-12,12.41a1.61,1.61,0,0,1-2.26,0,1.59,1.59,0,0,1,0-2.26l13.08-13.56a1.59,1.59,0,0,1,2.26,0l13.56,13.08A1.61,1.61,0,0,1,565.42,130Z"/><path class="cls-1" d="M750.39,166.12a1.62,1.62,0,0,1-.87,1.43l-12.74,6.5a1.6,1.6,0,0,1-1.46-2.85l11.32-5.77-5.77-11.33a1.59,1.59,0,1,1,2.84-1.45l6.51,12.75A1.55,1.55,0,0,1,750.39,166.12Z"/><path class="cls-1" d="M868.41,333.2a1.6,1.6,0,0,1-3,.78l-3.32-5.88-5.88,3.32a1.6,1.6,0,1,1-1.57-2.78l7.27-4.1a1.58,1.58,0,0,1,1.22-.15,1.6,1.6,0,0,1,1,.75l4.1,7.27A1.61,1.61,0,0,1,868.41,333.2Z"/><path class="cls-2" d="M735.71,373.81a1,1,0,0,1,0,.24,1.59,1.59,0,0,1-1.81,1.35l-8.58-1.27a1.61,1.61,0,0,1-1.35-1.81l1.27-8.58a1.6,1.6,0,1,1,3.16.47l-1,7,7,1A1.58,1.58,0,0,1,735.71,373.81Z"/><path class="cls-1" d="M865.44,8.06a1.59,1.59,0,0,1-.88,1.42l-6.24,3.15a1.62,1.62,0,0,1-1.22.09,1.63,1.63,0,0,1-.93-.8L853,5.68a1.6,1.6,0,1,1,2.86-1.44l2.42,4.81,4.81-2.42a1.6,1.6,0,0,1,2.15.71A1.65,1.65,0,0,1,865.44,8.06Z"/><path class="cls-1" d="M558.94,233.87a1.58,1.58,0,0,1-1.11,1.52l-19.27,6.15,6.15,19.27a1.6,1.6,0,1,1-3.05,1L535,241a1.6,1.6,0,0,1,1-2l20.8-6.63a1.58,1.58,0,0,1,2,1A1.44,1.44,0,0,1,558.94,233.87Z"/><path class="cls-1" d="M860,195.44a1.59,1.59,0,0,1-2,1.53l-10-2.83-2.83,10a1.6,1.6,0,0,1-3.07-.87l3.26-11.53a1.61,1.61,0,0,1,2-1.1l11.52,3.27A1.6,1.6,0,0,1,860,195.44Z"/><path class="cls-1" d="M593.47,31.59a1.57,1.57,0,0,1-.13.62,1.6,1.6,0,0,1-2.09.85l-21.08-8.91a1.61,1.61,0,0,1-.85-2.1L578.23,1a1.6,1.6,0,0,1,2.95,1.24l-8.29,19.6,19.6,8.29A1.61,1.61,0,0,1,593.47,31.59Z"/><path class="cls-1" d="M843,23.29a1.49,1.49,0,0,1-.2.76,1.6,1.6,0,0,1-2.17.64l-14.74-8-8,14.75A1.6,1.6,0,0,1,815,29.87l8.8-16.15a1.6,1.6,0,0,1,2.17-.64l16.15,8.8A1.59,1.59,0,0,1,843,23.29Z"/><path class="cls-3" d="M534.66,338.38a1.61,1.61,0,0,1-1,1.49l-17,6.47a1.6,1.6,0,1,1-1.14-3l15.51-5.9L525.1,322a1.6,1.6,0,1,1,3-1.14l6.47,17A1.65,1.65,0,0,1,534.66,338.38Z"/><path class="cls-1" d="M800.85,133.05a1.61,1.61,0,0,1-1.27,1.57l-23.18,4.95a1.58,1.58,0,0,1-1.89-1.23l-5-23.18a1.6,1.6,0,1,1,3.12-.67l4.63,21.62,21.62-4.62a1.6,1.6,0,0,1,1.89,1.23A1.24,1.24,0,0,1,800.85,133.05Z"/><path class="cls-1" d="M735.11,283.82a1.61,1.61,0,0,1-1.51,1.6l-21,1.14a1.63,1.63,0,0,1-1.15-.41,1.56,1.56,0,0,1-.53-1.1l-1.14-21a1.6,1.6,0,0,1,3.19-.17L714,283.28l19.41-1.06a1.6,1.6,0,0,1,1.68,1.51Z"/><path class="cls-1" d="M668.36,129.18a1.72,1.72,0,0,1-.06.44l-1.69,5.84a1.6,1.6,0,0,1-2,1.09l-5.84-1.69a1.6,1.6,0,0,1,.89-3.07L664,133l1.25-4.31a1.6,1.6,0,0,1,3.13.45Z"/><path class="cls-1" d="M561.42,307.7a1.45,1.45,0,0,1-.08.5l-2.41,7.38a1.6,1.6,0,1,1-3-1l1.92-5.86L552,306.8a1.6,1.6,0,0,1,1-3l7.38,2.42A1.59,1.59,0,0,1,561.42,307.7Z"/><path class="cls-2" d="M891.65,222.28a.76.76,0,0,1,0,.15l-2.13,22.33a1.61,1.61,0,0,1-1.74,1.44,1.58,1.58,0,0,1-1.44-1.74l2-20.74-20.74-2a1.6,1.6,0,0,1,.3-3.19l22.33,2.14A1.59,1.59,0,0,1,891.65,222.28Z"/><path class="cls-1" d="M507.34,313.69a1.59,1.59,0,0,1-.32,1l-2.43,3.18a1.6,1.6,0,0,1-2.24.3l-3.18-2.42a1.6,1.6,0,0,1,1.94-2.55l1.91,1.46,1.45-1.91a1.6,1.6,0,0,1,2.24-.3A1.57,1.57,0,0,1,507.34,313.69Z"/><path class="cls-1" d="M517.85,368.51a1.49,1.49,0,0,1,1,0l3.76,1.35a1.6,1.6,0,0,1,1,2l-1.36,3.77a1.6,1.6,0,1,1-3-1.09l.81-2.25-2.26-.81a1.6,1.6,0,0,1-1-2.05A1.56,1.56,0,0,1,517.85,368.51Z"/><path class="cls-1" d="M892.75,383.16v0l-.09,5.54a1.58,1.58,0,0,1-.49,1.12,1.55,1.55,0,0,1-1.13.45l-5.54-.09a1.57,1.57,0,0,1-1.57-1.62,1.59,1.59,0,0,1,1.62-1.57l3.94.06.06-3.94a1.6,1.6,0,0,1,3.2,0Z"/><path class="cls-1" d="M810.32,297.85a1.83,1.83,0,0,1-.05.4,1.6,1.6,0,0,1-1.95,1.15l-6.2-1.6-1.6,6.21a1.59,1.59,0,0,1-3.09-.79l2-7.76a1.6,1.6,0,0,1,2-1.15l7.75,2A1.61,1.61,0,0,1,810.32,297.85Z"/><path class="cls-1" d="M896.43,100a1.09,1.09,0,0,1,0,.18l-1.67,14.47a1.6,1.6,0,1,1-3.17-.36l1.48-12.89-12.88-1.49a1.6,1.6,0,1,1,.37-3.17L895,98.44A1.6,1.6,0,0,1,896.43,100Z"/><path class="cls-1" d="M861.21,430.78a1.59,1.59,0,0,1-1.25,1.55l-19.48,4.33a1.61,1.61,0,0,1-1.91-1.22L834.25,416a1.6,1.6,0,0,1,3.12-.7l4,17.92,17.92-4a1.6,1.6,0,0,1,1.9,1.22A1.34,1.34,0,0,1,861.21,430.78Z"/><path class="cls-3" d="M772.82,416.4a1.6,1.6,0,0,1-2.85,1l-13.56-17.06L739.35,413.9a1.6,1.6,0,0,1-2-2.51l18.31-14.55a1.6,1.6,0,0,1,2.25.26l14.55,18.31A1.6,1.6,0,0,1,772.82,416.4Z"/><path class="cls-1" d="M461.89,218.36a1.58,1.58,0,0,1-.18.73,1.59,1.59,0,0,1-2.15.69L454,216.91a1.59,1.59,0,0,1-.69-2.15l2.87-5.56a1.6,1.6,0,0,1,2.84,1.46l-2.14,4.14,4.14,2.14A1.59,1.59,0,0,1,461.89,218.36Z"/><path class="cls-1" d="M703.19,114.11a1.59,1.59,0,0,1-.74,1.35L692.2,121.9a1.6,1.6,0,1,1-1.7-2.71l8.89-5.58-5.58-8.9a1.6,1.6,0,0,1,2.71-1.7L703,113.26A1.57,1.57,0,0,1,703.19,114.11Z"/><path class="cls-1" d="M893.13,190.73a1.59,1.59,0,0,1-2.58,1.25l-15.36-12.11a1.6,1.6,0,0,1-.27-2.25L887,162.27a1.6,1.6,0,1,1,2.51,2l-11.12,14.11,14.1,11.12A1.6,1.6,0,0,1,893.13,190.73Z"/><path class="cls-1" d="M475.25,406a1.63,1.63,0,0,1-.44,1.11,1.61,1.61,0,0,1-2.26,0l-3.86-3.67L465,407.34a1.6,1.6,0,1,1-2.31-2.21l4.77-5a1.61,1.61,0,0,1,2.26-.06l5,4.78A1.58,1.58,0,0,1,475.25,406Z"/><path class="cls-1" d="M590.43,197.93a1.59,1.59,0,0,1-1,1.46l-16.64,7.22a1.61,1.61,0,0,1-2.1-.83l-7.21-16.64a1.6,1.6,0,1,1,2.93-1.27L573,203l15.17-6.58a1.6,1.6,0,0,1,2.1.83A1.63,1.63,0,0,1,590.43,197.93Z"/><path class="cls-1" d="M802.38,263.25c0,.06,0,.12,0,.19l-.85,7.37a1.6,1.6,0,1,1-3.17-.36l.66-5.79-5.79-.66a1.6,1.6,0,0,1,.37-3.18l7.37.85A1.59,1.59,0,0,1,802.38,263.25Z"/><path class="cls-1" d="M605.86,214.62a1.49,1.49,0,0,1-.13.61l-3.68,8.82a1.6,1.6,0,0,1-2.09.86l-8.81-3.68a1.6,1.6,0,0,1,1.23-2.95l7.34,3.06,3.06-7.34a1.6,1.6,0,0,1,3.08.62Z"/><path class="cls-1" d="M462.21,158.88a1.58,1.58,0,0,1-.39,1l-3.27,3.82a1.6,1.6,0,1,1-2.43-2.08l2.24-2.61-2.62-2.23a1.61,1.61,0,0,1-.17-2.26,1.59,1.59,0,0,1,2.25-.17l3.83,3.27A1.61,1.61,0,0,1,462.21,158.88Z"/><path class="cls-1" d="M530.9,111.16a1.58,1.58,0,0,1-.7,1.32l-10.46,7.18a1.61,1.61,0,0,1-2.23-.42l-7.18-10.46A1.6,1.6,0,1,1,513,107l6.28,9.15,9.15-6.28a1.6,1.6,0,0,1,2.22.41A1.62,1.62,0,0,1,530.9,111.16Z"/><path class="cls-1" d="M489.74,351.45a1.6,1.6,0,0,1-.84,1.42,1.62,1.62,0,0,1-2.17-.66l-10.11-19-19,10.12a1.6,1.6,0,0,1-1.5-2.82l20.44-10.87a1.59,1.59,0,0,1,1.21-.12,1.57,1.57,0,0,1,.95.78l10.87,20.43A1.69,1.69,0,0,1,489.74,351.45Z"/><path class="cls-1" d="M758.25,441.38a1.62,1.62,0,0,1-.36,1,1.6,1.6,0,0,1-2.25.22l-7.79-6.4-6.4,7.79a1.6,1.6,0,0,1-2.47-2l7.41-9a1.6,1.6,0,0,1,2.25-.22l9,7.41A1.61,1.61,0,0,1,758.25,441.38Z"/><path class="cls-2" d="M816.89,405.21a1.58,1.58,0,0,1-.9,1.44,1.61,1.61,0,0,1-2.14-.75l-5.19-10.85-10.85,5.2a1.6,1.6,0,0,1-1.38-2.89l12.29-5.88a1.57,1.57,0,0,1,1.22-.07,1.6,1.6,0,0,1,.91.82l5.89,12.29A1.68,1.68,0,0,1,816.89,405.21Z"/><path class="cls-1" d="M539,150.45a2.11,2.11,0,0,1,0,.25l-3.13,19.8a1.54,1.54,0,0,1-.64,1,1.62,1.62,0,0,1-1.19.29l-19.79-3.13a1.6,1.6,0,0,1,.5-3.16L533,168.42l2.88-18.22a1.6,1.6,0,0,1,3.18.25Z"/><path class="cls-1" d="M608.14,141.81a1.58,1.58,0,0,1-.07.47,1.6,1.6,0,0,1-2,1.06l-16.29-5-5,16.29a1.6,1.6,0,1,1-3.06-.93l5.44-17.82a1.64,1.64,0,0,1,.78-1,1.61,1.61,0,0,1,1.22-.11L607,140.28A1.59,1.59,0,0,1,608.14,141.81Z"/><path class="cls-1" d="M643.45,120.15a1.52,1.52,0,0,1-.09.51,1.61,1.61,0,0,1-2,1l-16.81-5.76a1.6,1.6,0,0,1-1-2l5.76-16.81a1.6,1.6,0,1,1,3,1l-5.24,15.29,15.29,5.25A1.58,1.58,0,0,1,643.45,120.15Z"/><path class="cls-1" d="M686.77,296.17a1.61,1.61,0,0,1-.19.76l-2.12,3.9a1.6,1.6,0,0,1-2.81-1.53l1.35-2.49-2.49-1.35a1.6,1.6,0,0,1,1.52-2.81l3.9,2.11A1.59,1.59,0,0,1,686.77,296.17Z"/><path class="cls-1" d="M610.58,352.33a1.6,1.6,0,0,1-.83,1.4l-3.48,1.92a1.6,1.6,0,0,1-1.54-2.81l2.08-1.14-1.14-2.08a1.59,1.59,0,0,1,.63-2.17,1.61,1.61,0,0,1,2.17.63l1.91,3.48A1.67,1.67,0,0,1,610.58,352.33Z"/><path class="cls-1" d="M538.88,287.11a1.6,1.6,0,0,1-1.59,1.6l-9.91,0,0,9.91h0a1.6,1.6,0,0,1-3.2,0l0-11.51h0a1.6,1.6,0,0,1,1.6-1.6l11.5,0a1.6,1.6,0,0,1,1.6,1.6Z"/><path class="cls-1" d="M857.51,393.77a1.6,1.6,0,0,1-3.12.5l-2.29-6.95-7,2.29a1.6,1.6,0,0,1-1-3l8.47-2.79a1.6,1.6,0,0,1,2,1l2.79,8.46A1.69,1.69,0,0,1,857.51,393.77Z"/><path class="cls-1" d="M858.54,118.76a1.34,1.34,0,0,1,0,.2,1.59,1.59,0,0,1-1.78,1.39l-18.14-2.2-2.21,18.14a1.6,1.6,0,1,1-3.18-.38l2.4-19.74a1.6,1.6,0,0,1,1.78-1.39l19.74,2.4A1.6,1.6,0,0,1,858.54,118.76Z"/><path class="cls-1" d="M633.3,329.92a1.5,1.5,0,0,1,0,.37,1.6,1.6,0,0,1-1.92,1.19l-5.15-1.21a1.6,1.6,0,0,1-1.19-1.92l1.21-5.15a1.6,1.6,0,1,1,3.11.73l-.84,3.6,3.59.84A1.59,1.59,0,0,1,633.3,329.92Z"/><path class="cls-2" d="M580.82,342.56a1.61,1.61,0,0,1-1,1.48l-10.22,4.31a1.59,1.59,0,0,1-2.1-.85l-4.32-10.23a1.6,1.6,0,0,1,2.95-1.24l3.69,8.76,8.76-3.7a1.61,1.61,0,0,1,2.1.85A1.71,1.71,0,0,1,580.82,342.56Z"/><path class="cls-1" d="M527,440a1.6,1.6,0,0,1-2.72,1.14l-3.58-3.52-3.52,3.58a1.6,1.6,0,0,1-2.28-2.24l4.64-4.72a1.6,1.6,0,0,1,2.26,0l4.72,4.64A1.59,1.59,0,0,1,527,440Z"/><path class="cls-1" d="M713.72,6.19a1.6,1.6,0,0,1-.54,1.2l-3.56,3.14a1.59,1.59,0,0,1-2.25-.15l-3.14-3.55a1.6,1.6,0,0,1,2.4-2.12l2.08,2.36L711.06,5a1.6,1.6,0,0,1,2.26.15A1.62,1.62,0,0,1,713.72,6.19Z"/><path class="cls-1" d="M703.53,38.87a1.6,1.6,0,0,1-2.5,1.32L694.86,36a1.59,1.59,0,0,1-.42-2.22l4.18-6.17a1.6,1.6,0,0,1,2.65,1.8L698,34.26l4.85,3.29A1.61,1.61,0,0,1,703.53,38.87Z"/><path class="cls-1" d="M786.77,188.27a1.59,1.59,0,0,1-2.44,1.35l-12.05-7.53a1.59,1.59,0,0,1-.51-2.2l7.53-12a1.6,1.6,0,1,1,2.71,1.7l-6.68,10.69L786,186.91A1.6,1.6,0,0,1,786.77,188.27Z"/><path class="cls-1" d="M608.13,93.62a1.59,1.59,0,0,1-.37,1l-14.18,16.91a1.59,1.59,0,0,1-1.09.57,1.62,1.62,0,0,1-1.16-.37L574.42,97.58a1.6,1.6,0,1,1,2.05-2.45l15.69,13.15L605.31,92.6a1.59,1.59,0,0,1,2.25-.2A1.57,1.57,0,0,1,608.13,93.62Z"/><path class="cls-1" d="M896.54,147.16v.08a1.59,1.59,0,0,1-1.69,1.51l-6.53-.36a1.59,1.59,0,0,1-1.51-1.68l.36-6.54a1.6,1.6,0,1,1,3.19.18l-.27,4.94,4.94.27A1.6,1.6,0,0,1,896.54,147.16Z"/></g></g></svg>